<svg width="77" height="47" viewBox="0 0 77 47" fill="none" xmlns="http://www.w3.org/2000/svg">
<path d="M65.19 34.09V33.81C65.1836 33.7871 65.1836 33.7629 65.19 33.74C65.46 33.48 65.7 33.2 65.92 32.96C66.0674 32.8268 66.1718 32.6528 66.2199 32.46C66.2199 32.3804 66.1884 32.3041 66.1321 32.2478C66.0759 32.1916 65.9995 32.16 65.92 32.16C65.8404 32.16 65.7641 32.1916 65.7078 32.2478C65.6515 32.3041 65.62 32.3804 65.62 32.46V32.52V32.58H65.26C65.2517 32.5819 65.2431 32.5817 65.2349 32.5793C65.2267 32.577 65.2193 32.5726 65.2133 32.5666C65.2073 32.5606 65.2029 32.5532 65.2006 32.545C65.1983 32.5369 65.198 32.5283 65.1999 32.52V32.39C65.2408 32.2113 65.3425 32.0524 65.4876 31.9405C65.6328 31.8285 65.8124 31.7706 65.9956 31.7765C66.1788 31.7824 66.3542 31.8518 66.4918 31.9729C66.6294 32.0939 66.7207 32.259 66.75 32.44C66.7275 32.666 66.6287 32.8776 66.4699 33.04C66.2999 33.25 66.08 33.47 65.85 33.71H66.7199H66.7799V34C66.7819 34.0083 66.7817 34.0168 66.7793 34.025C66.777 34.0332 66.7726 34.0406 66.7666 34.0466C66.7606 34.0526 66.7532 34.057 66.745 34.0594C66.7369 34.0617 66.7282 34.0619 66.7199 34.06H65.26C65.2578 34.0669 65.2542 34.0733 65.2494 34.0787C65.2445 34.084 65.2386 34.0883 65.2319 34.0912C65.2253 34.094 65.218 34.0954 65.2108 34.0952C65.2036 34.095 65.1965 34.0932 65.19 34.09Z" fill="#ED1C24"/>
<path d="M67.06 33.42V32.55C67.0537 32.4459 67.07 32.3418 67.1079 32.2447C67.1458 32.1476 67.2043 32.0599 67.2795 31.9876C67.3546 31.9153 67.4445 31.8602 67.543 31.8261C67.6415 31.792 67.7462 31.7797 67.85 31.79C67.9541 31.7798 68.0592 31.7922 68.1582 31.8263C68.2571 31.8603 68.3476 31.9152 68.4235 31.9873C68.4994 32.0594 68.5589 32.1469 68.5979 32.244C68.637 32.3411 68.6547 32.4454 68.6499 32.55V33.42C68.6562 33.5253 68.6396 33.6308 68.6012 33.7291C68.5628 33.8274 68.5035 33.9162 68.4275 33.9894C68.3514 34.0626 68.2605 34.1185 68.1608 34.1531C68.061 34.1877 67.955 34.2003 67.85 34.19C67.7453 34.2005 67.6397 34.188 67.5405 34.1533C67.4412 34.1186 67.3507 34.0626 67.2754 33.9892C67.2001 33.9158 67.1418 33.8269 67.1046 33.7285C67.0674 33.6302 67.0522 33.5248 67.06 33.42ZM68.18 33.42V32.5C68.1883 32.4525 68.1862 32.4038 68.1737 32.3573C68.1612 32.3108 68.1387 32.2676 68.1077 32.2306C68.0767 32.1937 68.0381 32.164 67.9944 32.1437C67.9508 32.1233 67.9031 32.1128 67.855 32.1128C67.8068 32.1128 67.7592 32.1233 67.7155 32.1437C67.6718 32.164 67.6332 32.1937 67.6022 32.2306C67.5712 32.2676 67.5487 32.3108 67.5362 32.3573C67.5238 32.4038 67.5216 32.4525 67.53 32.5V33.42C67.5216 33.4674 67.5238 33.5161 67.5362 33.5627C67.5487 33.6092 67.5712 33.6525 67.6022 33.6894C67.6332 33.7263 67.6718 33.7559 67.7155 33.7763C67.7592 33.7967 67.8068 33.8072 67.855 33.8072C67.9031 33.8072 67.9508 33.7967 67.9944 33.7763C68.0381 33.7559 68.0767 33.7263 68.1077 33.6894C68.1387 33.6525 68.1612 33.6092 68.1737 33.5627C68.1862 33.5161 68.1883 33.4674 68.18 33.42Z" fill="#ED1C24"/>
<path d="M68.96 33.42V32.55C68.9537 32.4459 68.9701 32.3418 69.008 32.2447C69.0459 32.1476 69.1044 32.0599 69.1796 31.9876C69.2547 31.9153 69.3446 31.8602 69.4431 31.8261C69.5416 31.792 69.6463 31.7797 69.75 31.79C69.8542 31.7798 69.9593 31.7922 70.0583 31.8263C70.1572 31.8603 70.2477 31.9152 70.3236 31.9873C70.3995 32.0594 70.459 32.1469 70.498 32.244C70.5371 32.3411 70.5548 32.4454 70.55 32.55V33.42C70.5563 33.5253 70.5397 33.6308 70.5013 33.7291C70.4629 33.8274 70.4036 33.9162 70.3276 33.9894C70.2515 34.0626 70.1605 34.1185 70.0608 34.1531C69.9611 34.1877 69.8551 34.2003 69.75 34.19C69.6454 34.2005 69.5397 34.188 69.4405 34.1533C69.3412 34.1186 69.2508 34.0626 69.1755 33.9892C69.1002 33.9158 69.0418 33.8269 69.0046 33.7285C68.9674 33.6302 68.9522 33.5248 68.96 33.42ZM70.08 33.42V32.5C70.083 32.4559 70.0764 32.4117 70.0609 32.3703C70.0454 32.3289 70.0212 32.2914 69.9899 32.2601C69.9587 32.2289 69.9211 32.2046 69.8797 32.1891C69.8384 32.1735 69.7941 32.167 69.75 32.17C69.7063 32.1668 69.6624 32.1733 69.6215 32.1889C69.5806 32.2045 69.5435 32.2289 69.513 32.2604C69.4825 32.2918 69.4593 32.3296 69.445 32.371C69.4306 32.4124 69.4255 32.4564 69.43 32.5V33.42C69.4255 33.4636 69.4306 33.5076 69.445 33.549C69.4593 33.5904 69.4825 33.6282 69.513 33.6596C69.5435 33.6911 69.5806 33.7155 69.6215 33.7311C69.6624 33.7467 69.7063 33.7531 69.75 33.75C69.7916 33.7527 69.8332 33.747 69.8725 33.7333C69.9118 33.7195 69.9479 33.698 69.9787 33.67C70.0095 33.642 70.0343 33.6081 70.0517 33.5703C70.0692 33.5325 70.0787 33.4916 70.08 33.45V33.42Z" fill="#ED1C24"/>
<path d="M7.30994 33.22V32.34C7.33189 32.1445 7.42512 31.964 7.57178 31.8329C7.71843 31.7018 7.90824 31.6293 8.10495 31.6293C8.30166 31.6293 8.49147 31.7018 8.63812 31.8329C8.78478 31.964 8.878 32.1445 8.89996 32.34V33.22C8.878 33.4155 8.78478 33.596 8.63812 33.7271C8.49147 33.8582 8.30166 33.9307 8.10495 33.9307C7.90824 33.9307 7.71843 33.8582 7.57178 33.7271C7.42512 33.596 7.33189 33.4155 7.30994 33.22ZM8.42996 33.22V32.31C8.43427 32.266 8.4291 32.2215 8.41483 32.1797C8.40055 32.1378 8.37748 32.0995 8.34717 32.0673C8.31686 32.0351 8.28002 32.0098 8.23911 31.993C8.19819 31.9762 8.15415 31.9683 8.10995 31.97C8.06494 31.9668 8.0198 31.9736 7.97766 31.9897C7.93552 32.0059 7.89739 32.031 7.86597 32.0634C7.83454 32.0957 7.81057 32.1346 7.79572 32.1772C7.78086 32.2198 7.77546 32.2651 7.77994 32.31V33.22C7.77546 33.2649 7.78086 33.3102 7.79572 33.3528C7.81057 33.3954 7.83454 33.4343 7.86597 33.4667C7.89739 33.4991 7.93552 33.5242 7.97766 33.5403C8.0198 33.5564 8.06494 33.5631 8.10995 33.56C8.15623 33.5692 8.20399 33.5677 8.2496 33.5557C8.29521 33.5436 8.33745 33.5213 8.37314 33.4904C8.40882 33.4596 8.437 33.421 8.45551 33.3776C8.47401 33.3342 8.48238 33.2871 8.47995 33.24L8.42996 33.22Z" fill="#5E5E5E"/>
<path d="M38.78 46.09C38.4993 46.0883 38.219 46.0716 37.9401 46.04C37.541 45.9865 37.1465 45.9029 36.7601 45.79C36.0213 45.5687 35.3226 45.2311 34.6901 44.79C33.7451 44.1204 32.981 43.2267 32.4664 42.1892C31.9517 41.1516 31.7026 40.0026 31.7412 38.845C31.7799 37.6875 32.1051 36.5576 32.6878 35.5567C33.2705 34.5558 34.0925 33.7151 35.08 33.11C35.9128 32.595 36.8417 32.2548 37.8101 32.11C39.172 31.9109 40.5625 32.1178 41.8075 32.7047C43.0526 33.2917 44.097 34.2326 44.8101 35.41C45.6591 36.7841 46.012 38.4075 45.8101 40.01C45.6113 41.5475 44.9079 42.9755 43.8101 44.07C43.2623 44.6155 42.6268 45.0651 41.93 45.4C41.6082 45.5578 41.2737 45.6882 40.93 45.79C40.5402 45.903 40.1424 45.9865 39.74 46.04C39.4214 46.0771 39.1008 46.0939 38.78 46.09ZM38.78 46.09C39.1 46.09 39.42 46.09 39.78 46.01C40.2016 45.9526 40.6167 45.8555 41.02 45.72C41.8087 45.4584 42.5413 45.0515 43.18 44.52C44.143 43.722 44.8698 42.6763 45.2822 41.4956C45.6945 40.3149 45.7768 39.044 45.52 37.82C45.3281 36.9869 44.9894 36.1945 44.52 35.48C43.7817 34.3679 42.7408 33.4901 41.52 32.95C40.0909 32.3524 38.5021 32.2537 37.0101 32.67C35.7666 33.0128 34.6485 33.7073 33.79 34.67C32.6659 35.9056 32.0328 37.5098 32.0101 39.18C32.0059 40.8331 32.5868 42.4343 33.65 43.7C34.1837 44.328 34.8276 44.8533 35.55 45.25C36.2985 45.6479 37.1107 45.9119 37.95 46.03C38.18 46.07 38.48 46.07 38.78 46.09Z" fill="url(#paint0_linear_219_55009)"/>
<path d="M38.79 43.67C41.2919 43.67 43.32 41.6418 43.32 39.14C43.32 36.6381 41.2919 34.61 38.79 34.61C36.2882 34.61 34.26 36.6381 34.26 39.14C34.26 41.6418 36.2882 43.67 38.79 43.67Z" fill="url(#paint1_radial_219_55009)"/>
<path d="M36.74 13.78C36.771 13.7292 36.808 13.6822 36.85 13.64L37.22 13.2H37.48L36.99 13.72L37.55 14.47H37.27L36.83 13.86L36.71 13.99V14.47H36.48V12.6H36.71L36.74 13.78Z" fill="#666666"/>
<path d="M37.79 13.54C37.79 13.41 37.79 13.3 37.79 13.2H37.9901V13.4001C38.0289 13.3284 38.0868 13.269 38.1575 13.2284C38.2281 13.1878 38.3086 13.1676 38.39 13.17C38.4685 13.1694 38.5453 13.1931 38.6097 13.2379C38.6742 13.2826 38.7232 13.3463 38.7501 13.42C38.7864 13.3554 38.8379 13.3005 38.9 13.26C38.979 13.1964 39.0788 13.1644 39.1801 13.17C39.3401 13.17 39.59 13.28 39.59 13.72V14.47H39.3701V13.75C39.3701 13.5 39.28 13.36 39.09 13.36C39.0286 13.3619 38.9693 13.3832 38.9208 13.421C38.8722 13.4587 38.837 13.5109 38.8201 13.57C38.8144 13.6065 38.8144 13.6436 38.8201 13.68V14.47H38.6V13.7101C38.6 13.5001 38.51 13.36 38.33 13.36C38.2638 13.3636 38.2004 13.3877 38.1484 13.4289C38.0965 13.4701 38.0586 13.5264 38.04 13.5901C38.0346 13.6265 38.0346 13.6636 38.04 13.7V14.47H37.8101L37.79 13.54Z" fill="#666666"/>
<path d="M39.78 14.57L40.52 12.67H40.7L39.96 14.57H39.78Z" fill="#666666"/>
<path d="M40.88 12.6H41.11V13.4C41.1436 13.3276 41.1997 13.2679 41.27 13.23C41.3433 13.1894 41.4261 13.1687 41.51 13.17C41.68 13.17 41.95 13.27 41.95 13.71V14.47H41.72V13.74C41.72 13.53 41.64 13.36 41.43 13.36C41.3603 13.3594 41.2923 13.3815 41.2364 13.423C41.1804 13.4645 41.1396 13.5232 41.12 13.59C41.1097 13.626 41.1097 13.6641 41.12 13.7V14.47H40.89L40.88 12.6Z" fill="#666666"/>
<path opacity="0.9" d="M0.599976 30.74L6.06998 32.02L6.00998 32.33L0.47998 31.28L0.599976 30.74ZM1.96997 25.99L6.65997 27.63V27.52L1.99997 25.8L1.96997 25.99ZM3.96997 21.27L8.96997 23.77L9.12 23.49L4.19998 20.78L3.96997 21.27ZM6.81998 16.58L10.9 19.42L10.96 19.32L6.95999 16.4L6.81998 16.58ZM10.05 12.58L14.23 16.33L14.45 16.11L10.45 12.17L10.05 12.58ZM18.25 5.84003L21.25 10.58L21.51 10.42L18.71 5.54999L18.25 5.84003ZM38.59 5.65997H38.9L39.02 0.0400085H38.48L38.59 5.65997ZM33.33 0.420013L34.05 5.34003H34.17L33.54 0.410004L33.33 0.420013ZM23.12 3.29999L25.12 7.84003H25.23L23.29 3.26001L23.12 3.29999ZM14.06 8.82001L17.22 12.66L17.32 12.58L14.22 8.69L14.06 8.82001ZM37.58 0.0599976L37.74 4.20001H37.85L37.77 0.0499878L37.58 0.0599976ZM36.52 0.0599976L36.79 4.20001H36.89L36.71 0.0499878L36.52 0.0599976ZM35.46 0.140015L35.84 4.27002H35.94L35.65 0.130005L35.46 0.140015ZM34.4 0.23999L34.89 4.35999H35L34.59 0.230011L34.4 0.23999ZM32.29 0.540009L33.01 4.62H33.11L32.48 0.529999L32.29 0.540009ZM31.24 0.730011L32.07 4.78998H32.18L31.43 0.709991L31.24 0.730011ZM30.24 0.950012L31.18 4.95001H31.28L30.43 0.890015L30.24 0.950012ZM29.24 1.19L30.24 5.19H30.35L29.35 1.19H29.24ZM27.19 1.76999L28.45 5.71997H28.55L27.37 1.72L27.19 1.76999ZM26.19 2.10001L27.56 6.01001H27.67L26.38 2.07001L26.19 2.10001ZM25.19 2.45999L26.67 6.33002H26.77L25.37 2.42001L25.19 2.45999ZM24.19 2.84L25.77 6.67999H25.87L24.37 2.81L24.19 2.84ZM22.24 3.69L24.03 7.42999H24.12L22.41 3.64999L22.24 3.69ZM21.24 4.15997L23.13 7.84998H23.23L21.41 4.12L21.24 4.15997ZM20.3 4.65002L22.3 8.28998L22.4 8.23999L20.48 4.59998L20.3 4.65002ZM21.55 8.65002L19.55 5.03003L19.39 5.13L21.47 8.71002L21.55 8.65002ZM17.55 6.22998L19.83 9.70001L19.92 9.64001L17.71 6.13L17.55 6.22998ZM16.66 6.82001L19.03 10.22L19.12 10.16L16.82 6.71002L16.66 6.82001ZM15.79 7.44L18.26 10.77L18.34 10.71L15.95 7.32001L15.79 7.44ZM14.94 8.07001L17.49 11.34L17.58 11.27L15.09 8L14.94 8.07001ZM13.29 9.41998L16.02 12.54L16.1 12.47L13.48 9.37L13.29 9.41998ZM12.49 10.12L15.3 13.12L15.38 13.05L12.63 9.94L12.49 10.12ZM11.71 10.85L14.61 13.85L14.69 13.77L11.85 10.77L11.71 10.85ZM14.01 14.41L11.09 11.41L10.96 11.55L13.96 14.44L14.01 14.41ZM9.47998 13.23L12.61 15.96L12.68 15.87L9.60999 13.09L9.47998 13.23ZM8.78998 14.04L11.99 16.68L12.06 16.59L8.90997 13.89L8.78998 14.04ZM8.12 14.86L11.39 17.41L11.45 17.33L8.23999 14.71L8.12 14.86ZM10.87 18.08L7.57999 15.55L7.46997 15.71L10.81 18.17L10.87 18.08ZM6.23999 17.45L9.70999 19.72L9.76999 19.63L6.34998 17.29L6.23999 17.45ZM5.65997 18.34L9.18997 20.52L9.24997 20.43L5.75998 18.18L5.65997 18.34ZM8.74997 21.24L5.19998 19.08L5.10999 19.25L8.68997 21.33L8.74997 21.24ZM8.26999 22.06L4.66998 20L4.57999 20.17L8.21997 22.17L8.26999 22.06ZM3.59998 22.06L7.33997 23.84L7.38998 23.75L3.67999 21.89L3.59998 22.06ZM3.13998 23.06L6.92999 24.73V24.64L3.16998 22.88L3.13998 23.06ZM6.59998 25.51L2.78998 23.85L2.71997 24.03L6.54999 25.61L6.59998 25.51ZM6.23999 26.39L2.38998 24.84L2.31998 25.02L6.19998 26.49L6.23999 26.39ZM5.58997 28.18L1.65997 26.84L1.59998 27.02L5.54999 28.28L5.58997 28.18ZM5.29999 29.08L1.29999 27.85L1.24997 28.04L5.24997 29.19L5.29999 29.08ZM5.03998 30L1.03998 28.88V29.06L5.03998 30.06V30ZM4.79999 30.92L0.799988 29.92V30.1L4.79999 31.04V30.92ZM27.98 1.59L29.61 6.96002L29.91 6.88L28.52 1.44L27.98 1.59ZM43.34 5.34998H43.45L44.17 0.429993H43.97L43.34 5.34998ZM39.66 4.22998H39.77L39.92 0.0899963H39.73L39.66 4.22998ZM40.61 4.22998H40.72L40.99 0.0899963H40.8L40.61 4.22998ZM41.61 4.28998H41.72L42.1 0.160004H41.91L41.61 4.28998ZM42.56 4.38H42.67L43.16 0.26001H42.97L42.56 4.38ZM44.44 4.63H44.55L45.27 0.549988H45.08L44.44 4.63ZM46.13 0.720001L45.38 4.79999H45.49L46.31 0.73999L46.13 0.720001ZM47.13 0.929993L46.28 5H46.39L47.33 1L47.13 0.929993ZM48.13 1.17999L47.13 5.17999H47.24L48.24 1.17999H48.13ZM48.99 1.39999L47.6 6.84003L47.9 6.91998L49.53 1.54999L48.99 1.39999Z" fill="url(#paint2_radial_219_55009)"/>
<path d="M63.6 24H63.98C63.98 24 63.98 24 63.98 24.06V26.27V26.33H63.62C63.62 26.33 63.62 26.33 63.62 26.27V24.46L63.33 24.52C63.33 24.52 63.27 24.52 63.27 24.47V24.22C63.2638 24.2093 63.2606 24.1973 63.2606 24.185C63.2606 24.1727 63.2638 24.1607 63.27 24.15L63.57 24.03L63.6 24Z" fill="#ED1C24"/>
<path d="M66.17 25.59V24.71C66.1637 24.606 66.1801 24.5018 66.218 24.4047C66.2559 24.3076 66.3144 24.2199 66.3895 24.1476C66.4646 24.0753 66.5546 24.0202 66.6531 23.9861C66.7515 23.952 66.8563 23.9397 66.96 23.95C67.0642 23.9399 67.1693 23.9522 67.2683 23.9863C67.3672 24.0203 67.4577 24.0753 67.5335 24.1473C67.6094 24.2194 67.6689 24.307 67.708 24.4041C67.7471 24.5011 67.7648 24.6055 67.76 24.71V25.59C67.7648 25.6946 67.7471 25.7989 67.708 25.896C67.6689 25.9931 67.6094 26.0806 67.5335 26.1527C67.4577 26.2248 67.3672 26.2797 67.2683 26.3137C67.1693 26.3478 67.0642 26.3601 66.96 26.35C66.8563 26.3603 66.7515 26.348 66.6531 26.3139C66.5546 26.2798 66.4646 26.2247 66.3895 26.1524C66.3144 26.0801 66.2559 25.9924 66.218 25.8953C66.1801 25.7982 66.1637 25.6941 66.17 25.59ZM67.29 25.59V24.67C67.2984 24.6225 67.2962 24.5738 67.2837 24.5273C67.2712 24.4808 67.2488 24.4375 67.2178 24.4006C67.1868 24.3637 67.1481 24.334 67.1045 24.3137C67.0608 24.2933 67.0132 24.2828 66.965 24.2828C66.9168 24.2828 66.8693 24.2933 66.8256 24.3137C66.7819 24.334 66.7432 24.3637 66.7123 24.4006C66.6813 24.4375 66.6588 24.4808 66.6463 24.5273C66.6338 24.5738 66.6316 24.6225 66.64 24.67V25.59C66.6316 25.6375 66.6338 25.6861 66.6463 25.7327C66.6588 25.7792 66.6813 25.8225 66.7123 25.8594C66.7432 25.8963 66.7819 25.9259 66.8256 25.9463C66.8693 25.9667 66.9168 25.9772 66.965 25.9772C67.0132 25.9772 67.0608 25.9667 67.1045 25.9463C67.1481 25.9259 67.1868 25.8963 67.2178 25.8594C67.2488 25.8225 67.2712 25.7792 67.2837 25.7327C67.2962 25.6861 67.2984 25.6375 67.29 25.59Z" fill="#ED1C24"/>
<path d="M58.91 17.15H59.29C59.2983 17.1481 59.3069 17.1483 59.3151 17.1507C59.3232 17.153 59.3307 17.1573 59.3367 17.1634C59.3427 17.1694 59.3471 17.1768 59.3494 17.185C59.3518 17.1931 59.352 17.2018 59.35 17.21V19.43C59.35 19.43 59.35 19.48 59.29 19.48H58.9301L58.8801 19.43V17.61L58.59 17.67H58.53V17.42C58.5235 17.4114 58.52 17.4009 58.52 17.39C58.52 17.3792 58.5235 17.3687 58.53 17.36L58.83 17.24L58.91 17.15Z" fill="#ED1C24"/>
<path d="M61.21 18.74C61.21 18.8569 61.1862 18.9726 61.14 19.08C61.0768 19.2135 60.977 19.3263 60.8522 19.4053C60.7274 19.4843 60.5827 19.5262 60.435 19.5262C60.2873 19.5262 60.1426 19.4843 60.0178 19.4053C59.893 19.3263 59.7932 19.2135 59.73 19.08C59.689 18.9749 59.6686 18.8628 59.67 18.75V17.75C59.67 17.39 59.98 17.15 60.42 17.15C60.86 17.15 61.15 17.39 61.15 17.74V17.82C61.15 17.82 61.15 17.87 61.09 17.87H60.74H60.68C60.68 17.8363 60.6732 17.803 60.66 17.772C60.6469 17.741 60.6276 17.7129 60.6033 17.6896C60.579 17.6662 60.5502 17.6481 60.5187 17.6361C60.4872 17.6241 60.4536 17.6186 60.42 17.62C60.3842 17.6172 60.3482 17.6219 60.3143 17.6337C60.2804 17.6456 60.2494 17.6643 60.2231 17.6887C60.1968 17.7131 60.1758 17.7427 60.1615 17.7756C60.1472 17.8086 60.1398 17.8441 60.14 17.88V18.19C60.2251 18.0858 60.3466 18.0179 60.48 18C60.6043 17.9949 60.7276 18.025 60.8355 18.087C60.9434 18.1489 61.0316 18.2401 61.09 18.35C61.1583 18.4695 61.1993 18.6027 61.21 18.74ZM60.74 18.74C60.7402 18.6626 60.7194 18.5866 60.68 18.52C60.6551 18.479 60.6198 18.4453 60.5776 18.4224C60.5355 18.3996 60.4879 18.3884 60.44 18.39C60.3892 18.3863 60.3384 18.3975 60.2939 18.4224C60.2495 18.4473 60.2134 18.4848 60.19 18.53C60.1602 18.596 60.1447 18.6676 60.1447 18.74C60.1447 18.8124 60.1602 18.884 60.19 18.95C60.2125 18.9988 60.2496 19.0394 60.2961 19.0663C60.3427 19.0931 60.3964 19.1049 60.45 19.1C60.5016 19.1015 60.5527 19.0882 60.597 19.0616C60.6413 19.0351 60.677 18.9963 60.7 18.95C60.7308 18.8845 60.7445 18.8122 60.74 18.74Z" fill="#ED1C24"/>
<path d="M61.48 18.76V17.88C61.4751 17.7768 61.4926 17.6737 61.5312 17.5778C61.5697 17.4819 61.6285 17.3955 61.7035 17.3243C61.7784 17.2532 61.8678 17.199 61.9656 17.1654C62.0633 17.1319 62.1671 17.1198 62.2699 17.13C62.3736 17.1183 62.4785 17.1292 62.5775 17.162C62.6765 17.1949 62.7672 17.2488 62.8432 17.3202C62.9193 17.3915 62.979 17.4785 63.0181 17.5752C63.0572 17.6718 63.075 17.7758 63.07 17.88V18.76C63.0748 18.8645 63.057 18.9689 63.0179 19.066C62.9788 19.163 62.9194 19.2506 62.8435 19.3227C62.7676 19.3948 62.6772 19.4496 62.5782 19.4837C62.4793 19.5177 62.3741 19.5301 62.2699 19.52C62.1662 19.5303 62.0615 19.518 61.963 19.4839C61.8645 19.4498 61.7746 19.3946 61.6994 19.3224C61.6243 19.2501 61.5658 19.1624 61.5279 19.0653C61.49 18.9682 61.4737 18.864 61.48 18.76ZM62.5999 18.76V17.84C62.6083 17.7926 62.6062 17.7438 62.5937 17.6973C62.5812 17.6508 62.5587 17.6075 62.5277 17.5706C62.4968 17.5337 62.4581 17.504 62.4144 17.4837C62.3707 17.4633 62.3231 17.4527 62.2749 17.4527C62.2268 17.4527 62.1792 17.4633 62.1355 17.4837C62.0919 17.504 62.0532 17.5337 62.0222 17.5706C61.9912 17.6075 61.9687 17.6508 61.9562 17.6973C61.9437 17.7438 61.9416 17.7926 61.9499 17.84V18.76C61.9416 18.8074 61.9437 18.8562 61.9562 18.9027C61.9687 18.9492 61.9912 18.9924 62.0222 19.0293C62.0532 19.0662 62.0919 19.096 62.1355 19.1163C62.1792 19.1367 62.2268 19.1472 62.2749 19.1472C62.3231 19.1472 62.3707 19.1367 62.4144 19.1163C62.4581 19.096 62.4968 19.0662 62.5277 19.0293C62.5587 18.9924 62.5812 18.9492 62.5937 18.9027C62.6062 18.8562 62.6083 18.8074 62.5999 18.76Z" fill="#ED1C24"/>
<path d="M52.75 12H53.12H53.18V14.22C53.1819 14.2282 53.1817 14.2369 53.1793 14.2451C53.177 14.2532 53.1726 14.2607 53.1666 14.2667C53.1606 14.2727 53.1532 14.277 53.145 14.2794C53.1369 14.2817 53.1283 14.2819 53.12 14.28H52.77C52.7617 14.2819 52.7531 14.2817 52.7449 14.2794C52.7368 14.277 52.7293 14.2727 52.7233 14.2667C52.7173 14.2607 52.713 14.2532 52.7106 14.2451C52.7083 14.2369 52.708 14.2282 52.71 14.22V12.4L52.41 12.46H52.35V12.21C52.3435 12.2014 52.34 12.1908 52.34 12.18C52.34 12.1692 52.3435 12.1587 52.35 12.15L52.66 12.03L52.75 12Z" fill="#ED1C24"/>
<path d="M55.22 13.38V13.68C55.2219 13.6883 55.2217 13.6969 55.2194 13.7051C55.217 13.7132 55.2126 13.7206 55.2066 13.7266C55.2006 13.7326 55.1932 13.737 55.1851 13.7394C55.1769 13.7417 55.1683 13.7419 55.16 13.74H55.04V14.26V14.32H54.68C54.6717 14.3219 54.6631 14.3217 54.6549 14.3193C54.6468 14.317 54.6394 14.3126 54.6334 14.3066C54.6274 14.3006 54.623 14.2932 54.6206 14.285C54.6183 14.2769 54.6181 14.2683 54.62 14.26V13.74H53.62C53.6117 13.7419 53.6031 13.7417 53.5949 13.7394C53.5868 13.737 53.5793 13.7326 53.5733 13.7266C53.5673 13.7206 53.563 13.7132 53.5606 13.7051C53.5583 13.6969 53.5581 13.6883 53.56 13.68V13.44C53.5557 13.4169 53.5557 13.3931 53.56 13.37L54.15 12.05C54.1606 12.0438 54.1727 12.0406 54.185 12.0406C54.1973 12.0406 54.2093 12.0438 54.22 12.05H54.48C54.53 12.05 54.54 12.05 54.53 12.11L53.98 13.34H54.47V12.95C54.4681 12.9417 54.4683 12.9331 54.4707 12.9249C54.473 12.9168 54.4774 12.9094 54.4834 12.9034C54.4894 12.8974 54.4968 12.893 54.505 12.8906C54.5131 12.8883 54.5217 12.8881 54.53 12.89H54.89C54.89 12.89 54.89 12.89 54.89 12.95V13.34H55.01C55.0153 13.3122 55.0314 13.2875 55.0549 13.2716C55.0783 13.2557 55.1072 13.2497 55.135 13.255C55.1629 13.2603 55.1874 13.2764 55.2034 13.2999C55.2193 13.3233 55.2253 13.3522 55.22 13.38Z" fill="#ED1C24"/>
<path d="M55.53 13.61V12.73C55.5252 12.6268 55.5427 12.5238 55.5813 12.4279C55.6198 12.332 55.6786 12.2456 55.7535 12.1744C55.8285 12.1033 55.9178 12.0491 56.0156 12.0155C56.1134 11.982 56.2172 11.9699 56.32 11.98C56.4237 11.9683 56.5286 11.9793 56.6275 12.0121C56.7265 12.045 56.8172 12.0989 56.8933 12.1702C56.9694 12.2415 57.0291 12.3285 57.0682 12.4252C57.1074 12.5219 57.125 12.6258 57.12 12.73V13.61C57.1248 13.7146 57.1071 13.8189 57.068 13.916C57.029 14.0131 56.9695 14.1006 56.8936 14.1727C56.8177 14.2448 56.7272 14.2997 56.6283 14.3338C56.5293 14.3678 56.4242 14.3802 56.32 14.37C56.2163 14.3803 56.1115 14.368 56.013 14.3339C55.9145 14.2998 55.8247 14.2447 55.7495 14.1725C55.6744 14.1002 55.6159 14.0125 55.578 13.9154C55.5401 13.8183 55.5237 13.7141 55.53 13.61ZM56.65 13.61V12.7C56.6584 12.6526 56.6563 12.6039 56.6438 12.5573C56.6313 12.5108 56.6088 12.4675 56.5778 12.4306C56.5468 12.3937 56.5081 12.3641 56.4645 12.3437C56.4208 12.3234 56.3732 12.3128 56.325 12.3128C56.2768 12.3128 56.2293 12.3234 56.1856 12.3437C56.1419 12.3641 56.1032 12.3937 56.0722 12.4306C56.0413 12.4675 56.0187 12.5108 56.0063 12.5573C55.9938 12.6039 55.9917 12.6526 56 12.7V13.61C55.9917 13.6575 55.9938 13.7062 56.0063 13.7527C56.0187 13.7993 56.0413 13.8425 56.0722 13.8794C56.1032 13.9163 56.1419 13.946 56.1856 13.9663C56.2293 13.9867 56.2768 13.9973 56.325 13.9973C56.3732 13.9973 56.4208 13.9867 56.4645 13.9663C56.5081 13.946 56.5468 13.9163 56.5778 13.8794C56.6088 13.8425 56.6313 13.7993 56.6438 13.7527C56.6563 13.7062 56.6584 13.6575 56.65 13.61Z" fill="#ED1C24"/>
<path d="M45.37 8.35998H45.74C45.7483 8.35806 45.7569 8.35832 45.765 8.36065C45.7732 8.36299 45.7806 8.36735 45.7866 8.37335C45.7926 8.37935 45.797 8.38679 45.7993 8.39495C45.8017 8.40312 45.8019 8.41171 45.8 8.41998V10.64C45.8 10.64 45.8 10.69 45.74 10.69H45.39C45.39 10.69 45.33 10.69 45.33 10.64V8.82L45.03 8.88L44.97 8.83001V8.58001C44.9635 8.57136 44.96 8.5608 44.96 8.54998C44.96 8.53917 44.9635 8.52867 44.97 8.52002L45.28 8.40002L45.37 8.35998Z" fill="#5E5E5E"/>
<path d="M46.1301 10.64V10.36C46.1254 10.3489 46.123 10.337 46.123 10.325C46.123 10.313 46.1254 10.3011 46.1301 10.29C46.4001 10.02 46.63 9.74 46.86 9.5C47.0058 9.36953 47.1101 9.19917 47.16 9.01001C47.16 8.93044 47.1284 8.85411 47.0721 8.79785C47.0159 8.74159 46.9396 8.71002 46.86 8.71002C46.7805 8.71002 46.7041 8.74159 46.6479 8.79785C46.5916 8.85411 46.5601 8.93044 46.5601 9.01001V9.08002C46.562 9.08829 46.5617 9.09688 46.5594 9.10504C46.557 9.1132 46.5527 9.12064 46.5467 9.12665C46.5407 9.13265 46.5332 9.13701 46.5251 9.13934C46.5169 9.14168 46.5083 9.14193 46.5001 9.14001H46.15C46.1418 9.14193 46.1332 9.14168 46.125 9.13934C46.1168 9.13701 46.1094 9.13265 46.1034 9.12665C46.0974 9.12064 46.093 9.1132 46.0907 9.10504C46.0884 9.09688 46.0881 9.08829 46.09 9.08002V8.94C46.0999 8.8495 46.1278 8.76189 46.1721 8.68237C46.2164 8.60286 46.2763 8.53307 46.3481 8.47711C46.4199 8.42115 46.5022 8.38018 46.5901 8.35663C46.6781 8.33308 46.7699 8.32744 46.86 8.34003C46.9554 8.32742 47.0524 8.33485 47.1447 8.36194C47.237 8.38903 47.3227 8.43516 47.3962 8.49731C47.4696 8.55947 47.5292 8.63627 47.5712 8.72284C47.6132 8.80941 47.6367 8.90384 47.64 9C47.6175 9.22599 47.5188 9.43757 47.36 9.59997C47.19 9.80998 46.97 10.02 46.74 10.27H47.61C47.6183 10.2681 47.6269 10.2683 47.6351 10.2706C47.6432 10.273 47.6507 10.2773 47.6567 10.2833C47.6627 10.2893 47.667 10.2968 47.6694 10.3049C47.6717 10.3131 47.672 10.3217 47.67 10.33V10.62C47.67 10.62 47.67 10.67 47.61 10.67H46.15C46.15 10.67 46.1301 10.67 46.1301 10.64Z" fill="#5E5E5E"/>
<path d="M48 10V9.12002C47.9952 9.01679 48.0126 8.91372 48.0512 8.81784C48.0898 8.72196 48.1485 8.63551 48.2234 8.56436C48.2984 8.49321 48.3878 8.43902 48.4855 8.40549C48.5833 8.37195 48.6871 8.35987 48.79 8.37002C48.8936 8.35832 48.9985 8.36929 49.0975 8.40213C49.1965 8.43497 49.2871 8.48889 49.3632 8.56021C49.4393 8.63154 49.499 8.71856 49.5381 8.81522C49.5773 8.91187 49.5949 9.01586 49.5899 9.12002V10C49.5947 10.1046 49.577 10.2089 49.5379 10.306C49.4989 10.4031 49.4394 10.4906 49.3635 10.5627C49.2876 10.6348 49.1971 10.6897 49.0982 10.7238C48.9992 10.7578 48.8941 10.7702 48.79 10.76C48.6862 10.7704 48.5815 10.758 48.483 10.7239C48.3845 10.6898 48.2946 10.6347 48.2195 10.5625C48.1443 10.4902 48.0858 10.4024 48.0479 10.3053C48.01 10.2082 47.9937 10.1041 48 10ZM49.12 10V9.09006C49.1244 9.04516 49.1191 8.99979 49.1042 8.95718C49.0894 8.91458 49.0653 8.87573 49.0339 8.84335C49.0025 8.81098 48.9644 8.78587 48.9223 8.76974C48.8801 8.75362 48.835 8.7469 48.79 8.75003C48.7458 8.74839 48.7017 8.75625 48.6608 8.77304C48.6199 8.78983 48.583 8.81518 48.5527 8.84738C48.5224 8.87959 48.4994 8.91789 48.4851 8.95975C48.4708 9.0016 48.4656 9.04604 48.4699 9.09006V10C48.4656 10.044 48.4708 10.0885 48.4851 10.1303C48.4994 10.1722 48.5224 10.2105 48.5527 10.2427C48.583 10.2749 48.6199 10.3003 48.6608 10.317C48.7017 10.3338 48.7458 10.3417 48.79 10.3401C48.835 10.3432 48.8801 10.3364 48.9223 10.3203C48.9644 10.3042 49.0025 10.279 49.0339 10.2467C49.0653 10.2143 49.0894 10.1754 49.1042 10.1328C49.1191 10.0902 49.1244 10.0449 49.12 10Z" fill="#5E5E5E"/>
<path d="M36.88 6.82001H37.25H37.31V9.03998C37.3119 9.04825 37.3117 9.0569 37.3093 9.06506C37.307 9.07322 37.3026 9.08067 37.2966 9.08667C37.2906 9.09267 37.2832 9.09703 37.275 9.09937C37.2669 9.1017 37.2583 9.10189 37.25 9.09998H36.9C36.8917 9.10189 36.8831 9.1017 36.8749 9.09937C36.8668 9.09703 36.8593 9.09267 36.8533 9.08667C36.8473 9.08067 36.843 9.07322 36.8406 9.06506C36.8383 9.0569 36.838 9.04825 36.84 9.03998V7.22998L36.55 7.28998C36.55 7.28998 36.48 7.28999 36.48 7.23999V7C36.4747 6.99088 36.4719 6.9805 36.4719 6.96997C36.4719 6.95944 36.4747 6.94912 36.48 6.94L36.78 6.82001H36.88Z" fill="#5E5E5E"/>
<path d="M37.65 8.42001V7.54001C37.6452 7.43678 37.6627 7.33376 37.7013 7.23788C37.7398 7.14201 37.7986 7.05556 37.8735 6.9844C37.9485 6.91325 38.0378 6.85907 38.1356 6.82553C38.2333 6.792 38.3372 6.77985 38.44 6.79001C38.5437 6.7783 38.6486 6.78928 38.7475 6.82211C38.8465 6.85495 38.9372 6.90887 39.0133 6.98019C39.0894 7.05152 39.1491 7.13854 39.1882 7.2352C39.2274 7.33186 39.245 7.43584 39.24 7.54001V8.42001C39.2448 8.52455 39.2271 8.6289 39.188 8.72598C39.149 8.82307 39.0895 8.91062 39.0136 8.9827C38.9377 9.05477 38.8472 9.10972 38.7483 9.14377C38.6493 9.17781 38.5442 9.19017 38.44 9.18002C38.3363 9.19035 38.2316 9.17806 38.1331 9.14395C38.0346 9.10984 37.9447 9.05472 37.8695 8.98245C37.7944 8.91018 37.7359 8.82248 37.698 8.72537C37.6601 8.62827 37.6437 8.52406 37.65 8.42001ZM38.77 8.42001V7.51004C38.7745 7.46514 38.7691 7.41983 38.7542 7.37723C38.7394 7.33462 38.7154 7.29577 38.684 7.2634C38.6526 7.23102 38.6144 7.20585 38.5723 7.18973C38.5302 7.1736 38.485 7.16688 38.44 7.17001C38.3958 7.16838 38.3518 7.17624 38.3109 7.19302C38.27 7.20981 38.2331 7.23516 38.2028 7.26736C38.1725 7.29957 38.1494 7.33787 38.1352 7.37973C38.1209 7.42159 38.1157 7.46603 38.12 7.51004V8.42001C38.1157 8.46403 38.1209 8.50847 38.1352 8.55032C38.1494 8.59218 38.1725 8.63048 38.2028 8.66269C38.2331 8.69489 38.27 8.72024 38.3109 8.73703C38.3518 8.75382 38.3958 8.76168 38.44 8.76004C38.4833 8.76286 38.5266 8.75656 38.5672 8.74161C38.6079 8.72666 38.6449 8.7034 38.676 8.67325C38.7071 8.6431 38.7315 8.60679 38.7477 8.56662C38.7639 8.52645 38.7715 8.48331 38.77 8.44003V8.42001Z" fill="#5E5E5E"/>
<path d="M39.5399 8.42001V7.54001C39.5349 7.43584 39.5526 7.33186 39.5917 7.2352C39.6309 7.13854 39.6906 7.05152 39.7666 6.98019C39.8427 6.90887 39.9334 6.85495 40.0324 6.82211C40.1314 6.78928 40.2363 6.7783 40.3399 6.79001C40.4427 6.77985 40.5466 6.792 40.6443 6.82553C40.7421 6.85907 40.8315 6.91325 40.9064 6.9844C40.9814 7.05556 41.0401 7.14201 41.0786 7.23788C41.1172 7.33376 41.1347 7.43678 41.1299 7.54001V8.42001C41.1362 8.52406 41.1198 8.62827 41.0819 8.72537C41.044 8.82248 40.9855 8.91018 40.9104 8.98245C40.8353 9.05472 40.7453 9.10984 40.6468 9.14395C40.5483 9.17806 40.4436 9.19035 40.3399 9.18002C40.2357 9.19017 40.1306 9.17781 40.0317 9.14377C39.9327 9.10972 39.8422 9.05477 39.7663 8.9827C39.6905 8.91062 39.631 8.82307 39.5919 8.72598C39.5528 8.6289 39.5351 8.52455 39.5399 8.42001ZM40.6599 8.42001V7.51004C40.6642 7.46603 40.659 7.42159 40.6448 7.37973C40.6305 7.33787 40.6074 7.29957 40.5771 7.26736C40.5468 7.23516 40.5099 7.20981 40.469 7.19302C40.4281 7.17624 40.3841 7.16838 40.3399 7.17001C40.2949 7.16688 40.2498 7.1736 40.2076 7.18973C40.1655 7.20585 40.1273 7.23102 40.0959 7.2634C40.0645 7.29577 40.0405 7.33462 40.0257 7.37723C40.0108 7.41983 40.0054 7.46514 40.0099 7.51004V8.42001C40.0054 8.46491 40.0108 8.51028 40.0257 8.55289C40.0405 8.59549 40.0645 8.63428 40.0959 8.66666C40.1273 8.69903 40.1655 8.7242 40.2076 8.74033C40.2498 8.75645 40.2949 8.76317 40.3399 8.76004C40.3823 8.76143 40.4245 8.75408 40.464 8.73849C40.5034 8.7229 40.5393 8.6994 40.5693 8.6694C40.5992 8.63941 40.6228 8.60357 40.6383 8.56412C40.6539 8.52466 40.6613 8.48243 40.6599 8.44003V8.42001Z" fill="#5E5E5E"/>
<path d="M30.4799 9.68999C30.4843 9.80845 30.4566 9.92593 30.3999 10.03C30.3277 10.1493 30.2244 10.2467 30.1011 10.3119C29.9778 10.377 29.8391 10.4075 29.6999 10.4C29.5604 10.4106 29.4209 10.3802 29.2983 10.3127C29.1758 10.2453 29.0756 10.1435 29.0099 10.02C28.9531 9.9196 28.9254 9.8053 28.9299 9.68999C28.9288 9.56974 28.9527 9.45059 28.9999 9.34002C29.0431 9.26576 29.1009 9.2011 29.1699 9.15002C29.1097 9.10322 29.0588 9.04551 29.0199 8.97997C28.9655 8.88951 28.9378 8.78553 28.9399 8.67998C28.9377 8.55139 28.9762 8.4254 29.0499 8.32C29.1259 8.2211 29.2247 8.14209 29.3379 8.08984C29.4512 8.03758 29.5753 8.01364 29.6999 8.02001C29.8373 8.0076 29.9754 8.03492 30.0978 8.09875C30.2201 8.16257 30.3215 8.26018 30.3899 8.38C30.4412 8.47176 30.4687 8.57488 30.4699 8.67998C30.471 8.7854 30.4433 8.8891 30.3899 8.97997C30.3418 9.04136 30.2883 9.0983 30.2299 9.15002C30.3041 9.19959 30.3629 9.2688 30.3999 9.34997C30.453 9.45542 30.4804 9.57194 30.4799 9.68999ZM29.4099 8.68999C29.3941 8.74555 29.3941 8.80442 29.4099 8.85998C29.4356 8.90256 29.4725 8.93726 29.5166 8.9602C29.5607 8.98314 29.6103 8.99343 29.6599 8.98998C29.7109 8.99311 29.7617 8.98272 29.8074 8.95989C29.853 8.93707 29.8919 8.90261 29.9199 8.85998C29.9356 8.801 29.9356 8.73896 29.9199 8.67998C29.9359 8.63127 29.9359 8.57874 29.9199 8.53002C29.8957 8.4804 29.8567 8.43941 29.8085 8.41259C29.7602 8.38577 29.7048 8.37438 29.6499 8.38C29.5978 8.37679 29.5459 8.38822 29.4999 8.41296C29.454 8.43769 29.4159 8.47477 29.3899 8.52001C29.3703 8.58131 29.3635 8.64598 29.3699 8.71001L29.4099 8.68999ZM30.0099 9.61999C30.0203 9.56379 30.0203 9.5062 30.0099 9.45C29.9888 9.39666 29.9513 9.35142 29.9027 9.32085C29.8542 9.29029 29.7972 9.276 29.7399 9.28002C29.6844 9.27814 29.6295 9.29342 29.583 9.32384C29.5365 9.35427 29.5005 9.39835 29.4799 9.45C29.4686 9.50947 29.4686 9.57053 29.4799 9.63C29.4776 9.70639 29.4948 9.78207 29.5299 9.84997C29.5548 9.891 29.5901 9.92471 29.6323 9.94756C29.6744 9.97041 29.7219 9.98158 29.7699 9.97997C29.817 9.98368 29.8643 9.9745 29.9066 9.95336C29.9489 9.93222 29.9846 9.89991 30.0099 9.85998C30.0162 9.7844 30.0024 9.70853 29.9699 9.64001L30.0099 9.61999Z" fill="#5E5E5E"/>
<path d="M65.9505 25.6729C65.9548 25.7914 65.9272 25.9088 65.8705 26.0129C65.7982 26.1322 65.695 26.2296 65.5717 26.2948C65.4484 26.36 65.3097 26.3904 65.1705 26.3829C65.031 26.3935 64.8915 26.3631 64.7689 26.2956C64.6464 26.2282 64.5462 26.1264 64.4805 26.0029C64.4237 25.9025 64.3959 25.7882 64.4005 25.6729C64.3994 25.5527 64.4232 25.4335 64.4705 25.3229C64.5136 25.2487 64.5715 25.184 64.6405 25.1329C64.5803 25.0861 64.5294 25.0284 64.4905 24.9629C64.4361 24.8724 64.4084 24.7684 64.4105 24.6629C64.4083 24.5343 64.4468 24.4083 64.5205 24.3029C64.5965 24.204 64.6953 24.125 64.8085 24.0727C64.9218 24.0205 65.0459 23.9966 65.1705 24.0029C65.3079 23.9905 65.446 24.0178 65.5684 24.0817C65.6907 24.1455 65.792 24.2431 65.8605 24.3629C65.9117 24.4547 65.9393 24.5578 65.9405 24.6629C65.9416 24.7683 65.9139 24.872 65.8605 24.9629C65.8124 25.0243 65.7589 25.0812 65.7005 25.1329C65.7746 25.1825 65.8335 25.2517 65.8705 25.3329C65.9235 25.4383 65.951 25.5549 65.9505 25.6729ZM64.8805 24.6729C64.8646 24.7285 64.8646 24.7873 64.8805 24.8429C64.9062 24.8855 64.9431 24.9202 64.9872 24.9431C65.0313 24.966 65.0809 24.9763 65.1305 24.9729C65.1814 24.976 65.2323 24.9656 65.278 24.9428C65.3236 24.92 65.3624 24.8855 65.3905 24.8429C65.4062 24.7839 65.4062 24.7219 65.3905 24.6629C65.4065 24.6142 65.4065 24.5616 65.3905 24.5129C65.3662 24.4633 65.3273 24.4223 65.279 24.3955C65.2308 24.3687 65.1754 24.3573 65.1205 24.3629C65.0684 24.3597 65.0165 24.3711 64.9705 24.3959C64.9246 24.4206 64.8865 24.4577 64.8605 24.5029C64.8409 24.5642 64.8341 24.6289 64.8405 24.6929L64.8805 24.6729ZM65.4805 25.6029C65.4909 25.5467 65.4909 25.4891 65.4805 25.4329C65.4594 25.3796 65.4218 25.3343 65.3733 25.3038C65.3247 25.2732 65.2677 25.2589 65.2105 25.2629C65.1549 25.261 65.1001 25.2763 65.0536 25.3068C65.007 25.3372 64.9711 25.3813 64.9505 25.4329C64.9391 25.4924 64.9391 25.5534 64.9505 25.6129C64.9482 25.6893 64.9654 25.765 65.0005 25.8329C65.0253 25.8739 65.0607 25.9076 65.1028 25.9305C65.145 25.9533 65.1925 25.9645 65.2405 25.9629C65.2876 25.9666 65.3349 25.9574 65.3772 25.9363C65.4195 25.9151 65.4552 25.8828 65.4805 25.8429C65.4868 25.7673 65.473 25.6914 65.4405 25.6229L65.4805 25.6029Z" fill="#ED1C24"/>
<path d="M30.7199 9.63999V8.75999C30.7141 8.65866 30.7298 8.55722 30.7659 8.46238C30.8021 8.36754 30.8579 8.28146 30.9296 8.2097C31.0014 8.13793 31.0876 8.08214 31.1824 8.046C31.2772 8.00986 31.3786 7.99417 31.4799 7.99998C31.5836 7.98827 31.6885 7.99919 31.7875 8.03202C31.8865 8.06486 31.9771 8.11884 32.0532 8.19016C32.1293 8.26149 32.189 8.34851 32.2281 8.44517C32.2673 8.54183 32.2849 8.64581 32.2799 8.74998V9.62998C32.2862 9.73534 32.2696 9.84082 32.2312 9.93913C32.1928 10.0374 32.1335 10.1262 32.0575 10.1994C31.9814 10.2726 31.8904 10.3285 31.7907 10.3631C31.691 10.3977 31.585 10.4103 31.4799 10.4C31.3786 10.4058 31.2772 10.3901 31.1824 10.354C31.0876 10.3178 31.0014 10.2621 30.9296 10.1903C30.8579 10.1185 30.8021 10.0324 30.7659 9.93754C30.7298 9.8427 30.7141 9.74132 30.7199 9.63999ZM31.8399 9.63999V8.71995C31.8444 8.67505 31.839 8.62974 31.8242 8.58714C31.8093 8.54453 31.7853 8.50568 31.7539 8.47331C31.7225 8.44093 31.6844 8.41582 31.6422 8.3997C31.6001 8.38358 31.555 8.37685 31.51 8.37998C31.4658 8.37835 31.4217 8.38621 31.3808 8.40299C31.3399 8.41978 31.303 8.44507 31.2727 8.47727C31.2424 8.50948 31.2193 8.54784 31.205 8.5897C31.1908 8.63156 31.1857 8.67594 31.19 8.71995V9.63999C31.1855 9.68358 31.1906 9.72762 31.2049 9.76902C31.2193 9.81042 31.2425 9.84816 31.273 9.87962C31.3035 9.91107 31.3405 9.93541 31.3814 9.95103C31.4224 9.96664 31.4663 9.9731 31.51 9.96995C31.5515 9.97265 31.5931 9.96703 31.6324 9.95329C31.6717 9.93955 31.7078 9.91799 31.7386 9.88999C31.7694 9.862 31.7943 9.82813 31.8117 9.79032C31.8291 9.75252 31.8387 9.71156 31.8399 9.66996V9.63999Z" fill="#5E5E5E"/>
<path d="M22.48 13.33C22.4832 13.4495 22.4628 13.5684 22.42 13.68C22.3584 13.8118 22.2589 13.9222 22.1342 13.997C22.0094 14.0718 21.8652 14.1077 21.72 14.1C21.5689 14.1117 21.418 14.0755 21.2888 13.9965C21.1595 13.9175 21.0585 13.7997 21 13.66C20.959 13.5548 20.9387 13.4428 20.94 13.33V12.33C20.94 11.96 21.25 11.72 21.69 11.72C22.13 11.72 22.42 11.96 22.42 12.32V12.4V12.45H22.06C22.0601 12.4154 22.053 12.3812 22.0392 12.3495C22.0255 12.3178 22.0052 12.2892 21.9799 12.2657C21.9545 12.2423 21.9245 12.2243 21.8918 12.213C21.8591 12.2016 21.8245 12.1972 21.79 12.2C21.7542 12.1973 21.7182 12.2019 21.6843 12.2137C21.6504 12.2256 21.6194 12.2443 21.5931 12.2687C21.5668 12.2931 21.5458 12.3227 21.5315 12.3557C21.5172 12.3886 21.5099 12.4241 21.51 12.46V12.77C21.6106 12.6861 21.7392 12.6432 21.87 12.65C21.9937 12.6478 22.1155 12.6803 22.2216 12.744C22.3277 12.8076 22.4138 12.8998 22.47 13.01C22.4951 13.1149 22.4985 13.2238 22.48 13.33ZM22.01 13.33C22.0306 13.2581 22.0306 13.1819 22.01 13.11C21.9869 13.0674 21.9519 13.0324 21.9093 13.0093C21.8667 12.9863 21.8183 12.9761 21.77 12.98C21.72 12.974 21.6695 12.9832 21.6249 13.0064C21.5803 13.0296 21.5437 13.0657 21.52 13.11C21.4836 13.181 21.4664 13.2603 21.47 13.34C21.455 13.4058 21.455 13.4742 21.47 13.54C21.4929 13.5863 21.5287 13.6251 21.573 13.6517C21.6173 13.6783 21.6683 13.6915 21.72 13.69C21.7721 13.6943 21.8242 13.6821 21.8691 13.6552C21.9139 13.6283 21.9492 13.588 21.97 13.54C21.9989 13.4775 22.0093 13.4082 22 13.34L22.01 13.33Z" fill="#5E5E5E"/>
<path d="M22.7301 13.35V12.47C22.7251 12.3658 22.7427 12.2618 22.7819 12.1652C22.821 12.0685 22.8807 11.9815 22.9568 11.9102C23.0329 11.8389 23.1235 11.7849 23.2225 11.7521C23.3215 11.7193 23.4264 11.7083 23.53 11.72C23.6329 11.7098 23.7367 11.722 23.8345 11.7555C23.9322 11.7891 24.0216 11.8432 24.0966 11.9144C24.1715 11.9856 24.2302 12.072 24.2688 12.1679C24.3074 12.2638 24.3249 12.3668 24.3201 12.47V13.35C24.3279 13.4549 24.3126 13.5602 24.2754 13.6585C24.2382 13.7569 24.1799 13.8458 24.1046 13.9192C24.0293 13.9926 23.9389 14.0487 23.8396 14.0833C23.7404 14.118 23.6347 14.1305 23.53 14.12C23.425 14.1303 23.319 14.1177 23.2193 14.0831C23.1196 14.0485 23.0286 13.9927 22.9525 13.9195C22.8765 13.8463 22.8172 13.7575 22.7788 13.6591C22.7404 13.5608 22.7238 13.4554 22.7301 13.35ZM23.8501 13.35V12.43C23.8545 12.3864 23.8494 12.3424 23.8351 12.301C23.8207 12.2596 23.7975 12.2219 23.767 12.1904C23.7365 12.1589 23.6995 12.1345 23.6585 12.1189C23.6176 12.1033 23.5737 12.0969 23.53 12.1C23.4859 12.0971 23.4417 12.1036 23.4003 12.1191C23.359 12.1346 23.3214 12.1589 23.2902 12.1902C23.2589 12.2214 23.2347 12.2589 23.2191 12.3003C23.2036 12.3417 23.1971 12.3859 23.2 12.43V13.35C23.1971 13.3941 23.2036 13.4383 23.2191 13.4797C23.2347 13.5211 23.2589 13.5587 23.2902 13.5899C23.3214 13.6212 23.359 13.6454 23.4003 13.6609C23.4417 13.6765 23.4859 13.683 23.53 13.68C23.5711 13.6828 23.6123 13.677 23.651 13.6632C23.6898 13.6493 23.7253 13.6277 23.7553 13.5996C23.7853 13.5714 23.8091 13.5374 23.8255 13.4997C23.8418 13.4619 23.8501 13.4212 23.8501 13.38V13.35Z" fill="#5E5E5E"/>
<path d="M16.1399 18.4V18.7C16.1418 18.7083 16.1416 18.7169 16.1393 18.725C16.137 18.7332 16.1326 18.7406 16.1266 18.7466C16.1206 18.7526 16.1132 18.757 16.105 18.7593C16.0968 18.7617 16.0882 18.7619 16.0799 18.76H15.9599V19.28C15.9599 19.28 15.9599 19.34 15.9099 19.34H15.5499C15.5417 19.3419 15.533 19.3417 15.5249 19.3394C15.5167 19.337 15.5093 19.3327 15.5033 19.3267C15.4973 19.3207 15.4929 19.3132 15.4906 19.3051C15.4882 19.2969 15.488 19.2883 15.4899 19.28V18.76H14.4899C14.4817 18.7619 14.4731 18.7617 14.4649 18.7593C14.4567 18.757 14.4493 18.7526 14.4433 18.7466C14.4373 18.7406 14.4329 18.7332 14.4306 18.725C14.4283 18.7169 14.428 18.7083 14.43 18.7V18.46C14.4267 18.4368 14.4267 18.4132 14.43 18.39L15.0199 17.07C15.0306 17.0639 15.0427 17.0606 15.055 17.0606C15.0672 17.0606 15.0793 17.0639 15.0899 17.07H15.4799C15.4799 17.07 15.5399 17.07 15.4799 17.13L14.93 18.36H15.4799V17.97C15.478 17.9617 15.4782 17.9531 15.4806 17.9449C15.4829 17.9368 15.4873 17.9293 15.4933 17.9233C15.4993 17.9173 15.5068 17.913 15.5149 17.9106C15.5231 17.9083 15.5317 17.9081 15.5399 17.91H15.8999C15.8999 17.91 15.9499 17.91 15.9499 17.97V18.36H16.07C16.0771 18.3568 16.085 18.3554 16.0928 18.3558C16.1006 18.3562 16.1083 18.3583 16.1151 18.3622C16.1219 18.3661 16.1277 18.3716 16.132 18.3782C16.1364 18.3847 16.139 18.3922 16.1399 18.4Z" fill="#5E5E5E"/>
<path d="M16.48 18.63V17.75C16.4752 17.6467 16.4927 17.5437 16.5312 17.4478C16.5698 17.3519 16.6286 17.2655 16.7035 17.1943C16.7785 17.1232 16.8679 17.069 16.9656 17.0354C17.0634 17.0019 17.1672 16.9898 17.27 17C17.3736 16.9883 17.4786 16.9992 17.5776 17.032C17.6765 17.0649 17.7672 17.1188 17.8433 17.1902C17.9194 17.2615 17.979 17.3485 18.0182 17.4452C18.0573 17.5418 18.0751 17.6458 18.0701 17.75V18.63C18.0763 18.7353 18.0597 18.8408 18.0213 18.9391C17.9829 19.0374 17.9236 19.1262 17.8476 19.1994C17.7715 19.2726 17.6805 19.3285 17.5808 19.3631C17.4811 19.3977 17.375 19.4103 17.27 19.4C17.1654 19.4105 17.0598 19.3979 16.9605 19.3633C16.8612 19.3286 16.7708 19.2726 16.6955 19.1992C16.6202 19.1258 16.5619 19.0368 16.5246 18.9385C16.4874 18.8401 16.4722 18.7348 16.48 18.63ZM17.6 18.63V17.71C17.6084 17.6625 17.6063 17.6138 17.5938 17.5673C17.5813 17.5208 17.5588 17.4775 17.5278 17.4406C17.4968 17.4037 17.4581 17.374 17.4145 17.3537C17.3708 17.3333 17.3232 17.3227 17.275 17.3227C17.2268 17.3227 17.1793 17.3333 17.1356 17.3537C17.0919 17.374 17.0532 17.4037 17.0223 17.4406C16.9913 17.4775 16.9688 17.5208 16.9563 17.5673C16.9438 17.6138 16.9416 17.6625 16.95 17.71V18.63C16.9416 18.6774 16.9438 18.7261 16.9563 18.7727C16.9688 18.8192 16.9913 18.8624 17.0223 18.8993C17.0532 18.9362 17.0919 18.9659 17.1356 18.9863C17.1793 19.0067 17.2268 19.0172 17.275 19.0172C17.3232 19.0172 17.3708 19.0067 17.4145 18.9863C17.4581 18.9659 17.4968 18.9362 17.5278 18.8993C17.5588 18.8624 17.5813 18.8192 17.5938 18.7727C17.6063 18.7261 17.6084 18.6774 17.6 18.63Z" fill="#5E5E5E"/>
<path d="M10.1 25.84V25.56C10.0953 25.5489 10.0929 25.5371 10.0929 25.525C10.0929 25.513 10.0953 25.5011 10.1 25.49C10.36 25.22 10.6 24.95 10.82 24.71C10.9711 24.5782 11.0791 24.404 11.13 24.21C11.13 24.1305 11.0984 24.0541 11.0421 23.9979C10.9859 23.9416 10.9096 23.91 10.83 23.91C10.7504 23.91 10.6741 23.9416 10.6179 23.9979C10.5616 24.0541 10.53 24.1305 10.53 24.21V24.28C10.5319 24.2883 10.5317 24.2969 10.5293 24.3051C10.527 24.3132 10.5226 24.3207 10.5166 24.3267C10.5106 24.3327 10.5032 24.337 10.495 24.3394C10.4869 24.3417 10.4782 24.342 10.47 24.34H10.11C10.1017 24.342 10.0931 24.3417 10.0849 24.3394C10.0768 24.337 10.0693 24.3327 10.0633 24.3267C10.0573 24.3207 10.053 24.3132 10.0506 24.3051C10.0483 24.2969 10.0481 24.2883 10.05 24.28V24.14C10.05 23.77 10.4 23.54 10.83 23.54C10.9246 23.5289 11.0205 23.5375 11.1116 23.5653C11.2028 23.593 11.2872 23.6394 11.3595 23.7014C11.4318 23.7634 11.4905 23.8397 11.5319 23.9255C11.5733 24.0114 11.5965 24.1048 11.6 24.2C11.5775 24.426 11.4787 24.6376 11.32 24.8C11.15 25.01 10.94 25.23 10.71 25.47H11.58C11.5883 25.4681 11.5969 25.4683 11.6051 25.4707C11.6132 25.473 11.6206 25.4773 11.6266 25.4833C11.6326 25.4893 11.637 25.4968 11.6394 25.505C11.6417 25.5131 11.6419 25.5218 11.64 25.53V25.82C11.64 25.82 11.64 25.82 11.58 25.82H10.11L10.1 25.84Z" fill="#5E5E5E"/>
<path d="M11.97 25.17V24.29C11.97 24.0805 12.0532 23.8795 12.2014 23.7314C12.3495 23.5832 12.5505 23.5 12.76 23.5C12.9695 23.5 13.1704 23.5832 13.3186 23.7314C13.4668 23.8795 13.55 24.0805 13.55 24.29V25.17C13.55 25.3795 13.4668 25.5805 13.3186 25.7286C13.1704 25.8768 12.9695 25.96 12.76 25.96C12.5505 25.96 12.3495 25.8768 12.2014 25.7286C12.0532 25.5805 11.97 25.3795 11.97 25.17ZM13.08 25.17V24.26C13.0843 24.216 13.0791 24.1716 13.0648 24.1297C13.0506 24.0878 13.0275 24.0495 12.9972 24.0173C12.9669 23.9851 12.93 23.9598 12.8891 23.943C12.8482 23.9262 12.8042 23.9183 12.76 23.92C12.715 23.9168 12.6698 23.9236 12.6277 23.9397C12.5855 23.9558 12.5474 23.981 12.516 24.0134C12.4846 24.0457 12.4606 24.0846 12.4457 24.1272C12.4309 24.1698 12.4255 24.2151 12.43 24.26V25.17C12.4255 25.2149 12.4309 25.2603 12.4457 25.3029C12.4606 25.3455 12.4846 25.3842 12.516 25.4166C12.5474 25.449 12.5855 25.4742 12.6277 25.4903C12.6698 25.5064 12.715 25.5131 12.76 25.51C12.8024 25.5114 12.8446 25.5041 12.8841 25.4885C12.9235 25.4729 12.9594 25.4494 12.9893 25.4194C13.0193 25.3894 13.0429 25.3535 13.0585 25.3141C13.0741 25.2746 13.0814 25.2324 13.08 25.19V25.17Z" fill="#5E5E5E"/>
<path opacity="0.9" d="M76.87 30.65L71.4 31.94L71.46 32.24L76.98 31.2L76.87 30.65Z" fill="#ED1C24"/>
<path opacity="0.9" d="M75.43 25.71L70.77 27.44L70.81 27.55L75.5 25.91L75.43 25.71Z" fill="#ED1C24"/>
<path opacity="0.9" d="M73.2 20.69L68.28 23.4L68.43 23.68L73.46 21.18L73.2 20.69Z" fill="#ED1C24"/>
<path opacity="0.9" d="M70.49 16.32L66.46 19.23L66.53 19.33L70.61 16.49L70.49 16.32Z" fill="#ED1C24"/>
<path opacity="0.9" d="M66.99 12.09L62.98 16.02L63.2 16.25L67.37 12.49L66.99 12.09Z" fill="#ED1C24"/>
<path opacity="0.9" d="M58.7 5.47L55.89 10.33L56.16 10.49L59.18 5.76L58.7 5.47Z" fill="#ED1C24"/>
<path opacity="0.9" d="M54.1199 3.13L52.1799 7.71L52.2899 7.76L54.3099 3.21L54.1199 3.13Z" fill="#ED1C24"/>
<path opacity="0.9" d="M63.21 8.60001L60.11 12.49L60.2 12.57L63.37 8.73001L63.21 8.60001Z" fill="#ED1C24"/>
<path opacity="0.9" d="M50.1299 1.67001L48.9399 5.64001L49.0499 5.67001L50.3099 1.72001L50.1299 1.67001Z" fill="#ED1C24"/>
<path opacity="0.9" d="M51.14 1.98999L49.85 5.92999L49.95 5.96999L51.32 2.04999L51.14 1.98999Z" fill="#ED1C24"/>
<path opacity="0.9" d="M52.14 2.35001L50.75 6.25001L50.85 6.29001L52.33 2.41001L52.14 2.35001Z" fill="#ED1C24"/>
<path opacity="0.9" d="M53.14 2.73001L51.64 6.59001L51.74 6.63001L53.32 2.80001L53.14 2.73001Z" fill="#ED1C24"/>
<path opacity="0.9" d="M55.1 3.57001L53.38 7.34001L53.48 7.39001L55.27 3.65001L55.1 3.57001Z" fill="#ED1C24"/>
<path opacity="0.9" d="M56.06 4.03L54.24 7.75L54.34 7.8L56.23 4.11L56.06 4.03Z" fill="#ED1C24"/>
<path opacity="0.9" d="M57 4.51001L55.09 8.19001L55.18 8.24001L57.17 4.60001L57 4.51001Z" fill="#ED1C24"/>
<path opacity="0.9" d="M56.02 8.69999L58.1 5.11999L57.94 5.01999L55.92 8.64999L56.02 8.69999Z" fill="#ED1C24"/>
<path opacity="0.9" d="M59.7599 6.12L57.5499 9.63L57.64 9.68999L59.92 6.22999L59.7599 6.12Z" fill="#ED1C24"/>
<path opacity="0.9" d="M60.65 6.70999L58.35 10.15L58.43 10.22L60.81 6.81999L60.65 6.70999Z" fill="#ED1C24"/>
<path opacity="0.9" d="M61.52 7.32001L59.12 10.7L59.21 10.77L61.68 7.43001L61.52 7.32001Z" fill="#ED1C24"/>
<path opacity="0.9" d="M62.38 7.95001L59.89 11.27L59.97 11.33L62.53 8.07001L62.38 7.95001Z" fill="#ED1C24"/>
<path opacity="0.9" d="M64.03 9.29001L61.37 12.46L61.45 12.53L64.18 9.41001L64.03 9.29001Z" fill="#ED1C24"/>
<path opacity="0.9" d="M64.83 9.98999L62.08 13.09L62.17 13.16L64.98 10.12L64.83 9.98999Z" fill="#ED1C24"/>
<path opacity="0.9" d="M65.62 10.71L62.78 13.74L62.86 13.81L65.75 10.84L65.62 10.71Z" fill="#ED1C24"/>
<path opacity="0.9" d="M63.54 14.48L66.51 11.59L66.38 11.45L63.46 14.4L63.54 14.48Z" fill="#ED1C24"/>
<path opacity="0.9" d="M67.84 13L64.77 15.79L64.84 15.87L67.96 13.15L67.84 13Z" fill="#ED1C24"/>
<path opacity="0.9" d="M68.54 13.81L65.39 16.51L65.46 16.59L68.66 13.95L68.54 13.81Z" fill="#ED1C24"/>
<path opacity="0.9" d="M69.21 14.63L65.99 17.24L66.06 17.33L69.33 14.78L69.21 14.63Z" fill="#ED1C24"/>
<path opacity="0.9" d="M66.64 18.08L69.98 15.62L69.87 15.47L66.58 17.99L66.64 18.08Z" fill="#ED1C24"/>
<path opacity="0.9" d="M71.0999 17.2L67.6799 19.54L67.7399 19.63L71.2099 17.36L71.0999 17.2Z" fill="#ED1C24"/>
<path opacity="0.9" d="M71.6899 18.09L68.2 20.34L68.2599 20.43L71.7899 18.25L71.6899 18.09Z" fill="#ED1C24"/>
<path opacity="0.9" d="M68.7599 21.24L72.3399 19.16L72.2399 19L68.7 21.15L68.7599 21.24Z" fill="#ED1C24"/>
<path opacity="0.9" d="M69.2299 22.07L72.8699 20.09L72.7799 19.92L69.1799 21.97L69.2299 22.07Z" fill="#ED1C24"/>
<path opacity="0.9" d="M73.7699 21.8L70.0599 23.66L70.1099 23.76L73.8499 21.98L73.7699 21.8Z" fill="#ED1C24"/>
<path opacity="0.9" d="M74.22 22.76L70.47 24.52L70.51 24.62L74.3 22.94L74.22 22.76Z" fill="#ED1C24"/>
<path opacity="0.9" d="M70.89 25.49L74.73 23.91L74.65 23.74L70.85 25.39L70.89 25.49Z" fill="#ED1C24"/>
<path opacity="0.9" d="M71.25 26.37L75.13 24.9L75.06 24.72L71.21 26.27L71.25 26.37Z" fill="#ED1C24"/>
<path opacity="0.9" d="M71.89 28.16L75.84 26.91L75.78 26.72L71.86 28.06L71.89 28.16Z" fill="#ED1C24"/>
<path opacity="0.9" d="M72.18 29.07L76.16 27.92L76.11 27.74L72.15 28.97L72.18 29.07Z" fill="#ED1C24"/>
<path opacity="0.9" d="M72.44 29.99L76.45 28.95L76.4 28.76L72.41 29.88L72.44 29.99Z" fill="#ED1C24"/>
<path opacity="0.9" d="M72.67 30.91L76.71 29.98L76.67 29.79L72.65 30.8L72.67 30.91Z" fill="#ED1C24"/>
<defs>
<linearGradient id="paint0_linear_219_55009" x1="38.7901" y1="45.88" x2="38.7901" y2="31.41" gradientUnits="userSpaceOnUse">
<stop stop-color="#959595"/>
<stop offset="0.21" stop-color="#AAAAAA"/>
<stop offset="0.48" stop-color="#C0C0C0"/>
<stop offset="0.75" stop-color="#CDCDCD"/>
<stop offset="1" stop-color="#D1D1D1"/>
</linearGradient>
<radialGradient id="paint1_radial_219_55009" cx="0" cy="0" r="1" gradientUnits="userSpaceOnUse" gradientTransform="translate(38.72 40.29) scale(5.46001 5.46)">
<stop offset="0.16" stop-color="#E9E9E9"/>
<stop offset="0.39" stop-color="#E6E6E6"/>
<stop offset="0.56" stop-color="#DCDCDC"/>
<stop offset="0.72" stop-color="#CBCBCB"/>
<stop offset="0.87" stop-color="#B4B4B4"/>
<stop offset="1" stop-color="#9A9A9A"/>
</radialGradient>
<radialGradient id="paint2_radial_219_55009" cx="0" cy="0" r="1" gradientUnits="userSpaceOnUse" gradientTransform="translate(25.03 39.28) scale(25.88 25.88)">
<stop offset="0.85" stop-color="#2E2E2E"/>
<stop offset="0.88" stop-color="#4A4A4A"/>
<stop offset="0.9" stop-color="#636363"/>
<stop offset="0.93" stop-color="#767676"/>
<stop offset="0.96" stop-color="#808080"/>
<stop offset="1" stop-color="#848484"/>
</radialGradient>
</defs>
</svg>
