<svg width="229" height="141" viewBox="0 0 229 141" fill="none" xmlns="http://www.w3.org/2000/svg">
<path fill-rule="evenodd" clip-rule="evenodd" d="M80.4077 43.882C66.2766 45.5995 55.0159 49.1595 40.1495 56.6082C30.5243 61.4307 21 68.6746 21 71.1724C21 72.2826 28.4365 78.9159 31.7857 80.7935C37.9776 84.2641 47.2499 86.6595 47.7462 84.9161C49.8618 77.4823 51.8243 74.6358 56.212 72.6364C58.2075 71.7278 60.4375 71.453 65.9154 71.442C73.8804 71.4258 76.6998 72.013 79.0009 74.1666C81.8752 76.8562 83.0351 80.0391 83.0351 85.2362V90.0225L97.7362 90.4075C111.526 90.7691 142.129 90.0581 148.063 89.2389C150.553 88.8948 150.805 88.666 151.825 85.8202C155.645 75.1595 158.897 71.4524 166.386 69.2222C172.96 67.2637 180.584 68.2468 184.516 71.5606C186.882 73.5548 188.366 77.0766 188.366 80.7014C188.366 82.6879 188.638 84.4825 188.971 84.6886C189.924 85.279 197.399 82.4669 201.027 80.1532C202.838 78.9989 205.383 77.0753 206.681 75.8796C210.057 72.7725 209.818 71.1251 205.494 67.7031C198.398 62.0879 195.847 61.3815 174.34 59.0787C161.209 57.673 133.698 56.2945 130.539 56.8836C128.854 57.1973 127.337 56.3684 119.269 50.7253C114.141 47.1387 108.906 43.915 107.637 43.5612C104.486 42.6836 88.7411 42.869 80.4077 43.882ZM109.076 48.9774C110.924 50.1757 113.177 51.8524 114.081 52.704C114.986 53.5562 116.876 55.1759 118.281 56.3036C119.688 57.4313 120.606 58.5868 120.324 58.8713C119.668 59.5311 92.2725 60.0639 89.1533 59.4767C87.4461 59.1552 85.6858 57.9076 82.661 54.8738C80.3792 52.5854 78.5117 50.2904 78.5117 49.7746C78.5117 49.164 79.6956 48.5937 81.9043 48.1394C86.8613 47.1206 88.3191 47.0039 97.4441 46.897L105.714 46.7998L109.076 48.9774ZM68.0885 53.0572C68.8459 55.6081 69.4649 57.8681 69.4649 58.08C69.4649 58.2919 62.9222 58.4656 54.9255 58.4656C46.9287 58.4656 40.3892 58.2472 40.3924 57.9796C40.4144 56.428 65.1432 46.9488 66.3115 48.0441C66.5318 48.2509 67.3318 50.5069 68.0885 53.0572ZM98.5439 66.2429C98.5439 67.4127 98.1129 67.5391 94.1284 67.5391C89.3853 67.5391 88.4496 67.1846 89.5818 65.8164C90.0464 65.2552 91.7633 64.9467 94.4224 64.9467C98.1129 64.9467 98.5439 65.0821 98.5439 66.2429ZM196.42 67.6065C197.677 68.7128 198.705 69.8794 198.705 70.1989C198.705 71.4964 196.346 70.6435 194.916 68.8295C194.077 67.7633 192.987 66.891 192.493 66.891C192 66.891 191.597 66.5993 191.597 66.2429C191.597 64.9201 194.208 65.6583 196.42 67.6065ZM201.59 67.6065C202.846 68.7128 203.874 69.8794 203.874 70.1989C203.874 71.4854 201.398 70.6617 199.776 68.8353C198.826 67.7659 197.76 66.891 197.407 66.891C197.055 66.891 196.766 66.5993 196.766 66.2429C196.766 64.9201 199.377 65.6583 201.59 67.6065ZM168.657 70.0758C162.693 71.1445 156.128 76.6923 155.987 80.7799C155.8 86.2019 157.506 90.9681 160.677 93.8891C164.071 97.0162 167.398 98.1562 172.382 97.9015C176.276 97.7025 177.539 97.337 179.94 95.7174C184.397 92.7095 186.499 89.2422 186.899 84.2369C187.416 77.7779 185.487 73.2943 181.257 71.1238C179.202 70.0686 172.025 69.4717 168.657 70.0758ZM55.4657 74.4323C54.0208 75.3714 52.3633 76.9476 51.7823 77.9347C50.247 80.5414 50.4525 85.4041 52.2612 89.2506C55.0366 95.1535 59.6408 98 66.4117 98C71.6097 98 74.6869 96.6714 77.8461 93.0627C83.3647 86.7586 83.0797 79.0008 77.1722 74.7084C74.968 73.107 73.8048 72.7259 71.1451 72.733L67.8494 72.7421L70.4342 74.0811C74.2882 76.0779 75.6038 78.2101 75.6038 82.4611C75.6038 86.5201 74.0788 89.095 70.5441 91.0057C63.5361 94.7932 55.1794 87.8565 57.3035 80.0151C58.0989 77.0772 59.361 75.5704 62.3561 73.9813L64.6184 72.781L61.3551 72.7524C58.8925 72.7311 57.4482 73.1426 55.4657 74.4323ZM177.186 75.0467C182.983 79.4817 182.181 87.7956 175.635 91.1178C171.772 93.0783 167.794 92.1956 164.485 88.6433C163.223 87.2881 162.845 86.0788 162.631 82.7216L162.364 78.5031L165.002 75.9858C168.942 72.2262 173.082 71.9073 177.186 75.0467ZM63.7002 75.271C62.9177 75.7674 62.9416 76.098 63.8618 77.5063C65.0605 79.3411 65.1858 79.8531 64.4369 79.8531C64.1596 79.8531 63.5871 78.9347 63.1645 77.8128C62.5125 76.0805 62.2475 75.8964 61.4075 76.5957C59.9031 77.8485 60.2159 78.9639 62.318 79.8369C64.842 80.8855 65.5877 80.2899 65.5877 77.2224C65.5877 74.5898 65.2776 74.2697 63.7002 75.271ZM66.6811 75.1543C66.1622 76.0688 66.3192 79.8531 66.8763 79.8531C67.644 79.8531 69.525 75.9379 69.0934 75.2379C68.6643 74.5419 67.0598 74.4861 66.6811 75.1543ZM168.639 75.3449C168.41 75.7169 168.683 76.7273 169.247 77.5905C170.415 79.378 170.511 79.8531 169.704 79.8531C169.392 79.8531 168.778 78.9853 168.34 77.9243C167.678 76.3216 167.342 76.1044 166.347 76.6385C165.689 76.9917 165.306 77.6865 165.496 78.1836C165.932 79.3229 169.321 80.7669 170.233 80.2011C171.317 79.5297 171.101 74.6682 169.987 74.6682C169.475 74.6682 168.868 74.9729 168.639 75.3449ZM171.995 75.1005C171.338 75.7597 171.482 79.8531 172.163 79.8531C172.963 79.8531 174.869 75.9606 174.424 75.2379C174.01 74.5652 172.607 74.4861 171.995 75.1005ZM69.2717 78.2328C68.0504 80.8026 68.1461 80.8836 70.7897 79.5122C73.3686 78.1745 73.2123 79.2076 70.5919 80.8149L68.4956 82.1001L70.9835 82.3159C73.9412 82.5719 74.2643 82.3405 73.7602 80.3268C73.4055 78.9075 71.3001 75.9645 70.6397 75.9645C70.4808 75.9645 69.8649 76.9852 69.2717 78.2328ZM174.514 78.0131C173.078 80.4493 173.494 80.8745 176.028 79.5601C178.337 78.3631 178.485 77.8602 176.838 76.8284C175.827 76.1952 175.48 76.3721 174.514 78.0131ZM58.8802 80.2082C58.2657 81.8142 58.9778 82.4455 61.4055 82.4455C63.0294 82.4455 63.5173 82.207 63.2608 81.5375C63.0702 81.0378 62.4246 80.4539 61.8275 80.2406C61.2298 80.0268 60.4136 79.6943 60.013 79.5012C59.6123 79.308 59.1031 79.6262 58.8802 80.2082ZM164.171 79.7073C163.972 79.9062 163.81 80.6036 163.81 81.2575C163.81 82.2096 164.319 82.4455 166.375 82.4455C168.204 82.4455 168.847 82.2057 168.619 81.6088C168.257 80.6632 164.724 79.1531 164.171 79.7073ZM176.597 80.078C173.706 81.1603 173.791 82.4455 176.754 82.4455C178.862 82.4455 179.319 82.2213 179.319 81.1875C179.319 79.531 178.716 79.2847 176.597 80.078ZM58.4892 83.5797C58.4951 83.8467 58.7535 84.4676 59.0637 84.9595C59.5393 85.7119 59.9451 85.6944 61.6388 84.8467C62.7445 84.2939 63.6491 84.0638 63.6491 84.3354C63.6491 84.6076 62.9222 85.1623 62.0336 85.5681C60.2579 86.3795 59.8915 87.9369 61.3454 88.4968C62.6333 88.9926 65.0979 84.8059 64.1047 83.8098C63.3099 83.0126 58.4737 82.8149 58.4892 83.5797ZM68.6036 83.5259C67.8436 84.2874 68.1383 85.467 69.5309 87.2434C70.6068 88.6154 71.0772 88.819 71.7925 88.2233C73.1786 87.0697 72.8885 86.3607 70.5958 85.2985L68.4956 84.3256L70.422 84.732C71.4817 84.955 72.6274 85.1883 72.9686 85.2498C73.3098 85.3114 73.6995 84.8519 73.8358 84.2278C74.0381 83.299 73.6265 83.0936 71.5586 83.0936C70.1699 83.0936 68.8401 83.288 68.6036 83.5259ZM163.81 84.0275C163.81 85.557 164.942 85.8027 167.022 84.7236C168.099 84.1656 168.98 83.57 168.98 83.4008C168.98 83.2316 167.816 83.0936 166.395 83.0936C164.575 83.0936 163.81 83.3703 163.81 84.0275ZM173.65 83.9037C173.184 84.4773 173.403 85.3114 174.401 86.7619C175.518 88.3834 176.041 88.6803 176.919 88.1877C178.56 87.2661 178.275 86.454 175.926 85.3568C174.36 84.6257 174.237 84.4708 175.442 84.7489C178.432 85.4378 178.945 85.3665 179.18 84.2278C179.371 83.2997 178.95 83.0936 176.861 83.0936C175.456 83.0936 174.012 83.4585 173.65 83.9037ZM167.145 85.7145C165.369 86.8001 165.126 87.2013 165.77 87.9803C166.881 89.3232 167.258 89.1832 168.58 86.9375C169.225 85.8435 169.908 85.1053 170.099 85.2972C170.291 85.4883 169.972 86.3737 169.39 87.2635C167.984 89.4165 168.058 90.2227 169.663 90.2227C170.825 90.2227 170.967 89.8806 170.794 87.5189C170.684 86.0315 170.304 84.7203 169.949 84.605C169.594 84.4896 168.331 84.9887 167.145 85.7145ZM64.4168 86.9563C62.6618 89.3368 62.6288 90.2227 64.2953 90.2227C65.3525 90.2227 65.5877 89.7905 65.5877 87.8461C65.5877 85.1312 66.21 85.2667 66.5008 88.0451C66.6385 89.3653 67.0934 89.9583 68.0795 90.1061C69.7318 90.353 69.7997 89.7982 68.4485 87.082C67.1819 84.5356 66.223 84.5052 64.4168 86.9563ZM171.564 87.6303C171.564 89.9635 171.726 90.2227 173.18 90.2227C175.071 90.2227 175.146 89.8293 173.779 87.082C172.398 84.3062 171.564 84.5129 171.564 87.6303Z" fill="#1C1C1C"/>
</svg>
