<svg width="25" height="23" viewBox="0 0 25 23" fill="none" xmlns="http://www.w3.org/2000/svg">
<path d="M11.2607 1.11802C11.7397 -0.356073 13.8251 -0.356073 14.3041 1.11802L16.0154 6.3849C16.2296 7.04414 16.8439 7.49047 17.5371 7.49047H23.075C24.625 7.49047 25.2694 9.47386 24.0155 10.3849L19.5352 13.64C18.9744 14.0474 18.7398 14.7696 18.954 15.4289L20.6653 20.6957C21.1442 22.1698 19.4571 23.3956 18.2031 22.4846L13.7229 19.2295C13.1621 18.8221 12.4027 18.8221 11.8419 19.2295L7.36167 22.4846C6.10773 23.3956 4.42056 22.1698 4.89952 20.6957L6.61083 15.4289C6.82503 14.7696 6.59038 14.0474 6.0296 13.64L1.54933 10.3849C0.295387 9.47386 0.939828 7.49047 2.48979 7.49047H8.0277C8.72087 7.49047 9.33519 7.04414 9.54939 6.3849L11.2607 1.11802Z" fill="#ED1C24"/>
</svg>
