<svg width="180" height="28" viewBox="0 0 180 28" fill="none" xmlns="http://www.w3.org/2000/svg">
<line x1="14.9395" y1="14.5" x2="166" y2="14.5" stroke="#CECECE"/>
<circle cx="14" cy="14" r="14" fill="#ED1C24"/>
<path d="M10.3106 10.9303C11.0453 10.639 11.7799 10.2653 12.5146 9.80933C13.2619 9.35333 13.9206 8.81499 14.4906 8.19433H16.1056V21.3613H13.8066V11.2723C13.4646 11.5383 13.0339 11.798 12.5146 12.0513C11.9953 12.3047 11.4949 12.5137 11.0136 12.6783L10.3106 10.9303Z" fill="white"/>
<circle cx="90" cy="14" r="14" fill="#CECECE"/>
<path d="M93.7396 11.6143C93.7396 12.0703 93.6446 12.52 93.4546 12.9633C93.2646 13.394 93.0176 13.8183 92.7136 14.2363C92.4223 14.6417 92.0866 15.0407 91.7066 15.4333C91.3266 15.8133 90.9466 16.187 90.5666 16.5543C90.3639 16.7443 90.1359 16.9723 89.8826 17.2383C89.6293 17.5043 89.3886 17.7703 89.1606 18.0363C88.9326 18.3023 88.7363 18.562 88.5716 18.8153C88.4069 19.056 88.3183 19.2587 88.3056 19.4233H94.1576V21.3613H85.7786C85.7659 21.26 85.7596 21.1397 85.7596 21.0003C85.7596 20.8483 85.7596 20.7343 85.7596 20.6583C85.7596 20.0503 85.8546 19.493 86.0446 18.9863C86.2473 18.467 86.5069 17.9857 86.8236 17.5423C87.1403 17.099 87.4949 16.681 87.8876 16.2883C88.2803 15.8957 88.6729 15.5093 89.0656 15.1293C89.3696 14.838 89.6609 14.553 89.9396 14.2743C90.2183 13.9957 90.4589 13.7233 90.6616 13.4573C90.8769 13.1787 91.0479 12.9 91.1746 12.6213C91.3013 12.33 91.3646 12.0323 91.3646 11.7283C91.3646 11.0697 91.1746 10.601 90.7946 10.3223C90.4146 10.0437 89.9523 9.90433 89.4076 9.90433C89.0529 9.90433 88.7236 9.95499 88.4196 10.0563C88.1156 10.1577 87.8433 10.278 87.6026 10.4173C87.3746 10.5567 87.1719 10.7023 86.9946 10.8543C86.8173 10.9937 86.6843 11.1077 86.5956 11.1963L85.4556 9.58133C85.9876 9.07466 86.6083 8.66933 87.3176 8.36533C88.0396 8.04866 88.8123 7.89033 89.6356 7.89033C91.0416 7.89033 92.0739 8.22599 92.7326 8.89733C93.4039 9.55599 93.7396 10.4617 93.7396 11.6143Z" fill="#787878"/>
<circle cx="166" cy="14" r="14" fill="#CECECE"/>
<path d="M165.085 21.6463C164.743 21.6463 164.388 21.621 164.021 21.5703C163.666 21.5323 163.324 21.4753 162.995 21.3993C162.678 21.336 162.387 21.2663 162.121 21.1903C161.855 21.1017 161.652 21.0193 161.513 20.9433L161.969 18.9863C162.235 19.113 162.621 19.2587 163.128 19.4233C163.634 19.5753 164.261 19.6513 165.009 19.6513C166.009 19.6513 166.731 19.4613 167.175 19.0813C167.618 18.6887 167.84 18.1693 167.84 17.5233C167.84 17.1053 167.751 16.757 167.574 16.4783C167.409 16.1997 167.175 15.978 166.871 15.8133C166.579 15.636 166.237 15.5157 165.845 15.4523C165.465 15.3763 165.059 15.3383 164.629 15.3383H163.85V13.4763H164.8C165.091 13.4763 165.382 13.451 165.674 13.4003C165.978 13.337 166.25 13.2357 166.491 13.0963C166.731 12.9443 166.928 12.748 167.08 12.5073C167.232 12.2667 167.308 11.9563 167.308 11.5763C167.308 11.2723 167.251 11.0127 167.137 10.7973C167.023 10.582 166.871 10.4047 166.681 10.2653C166.503 10.126 166.294 10.0247 166.054 9.96133C165.813 9.89799 165.56 9.86633 165.294 9.86633C164.724 9.86633 164.217 9.95499 163.774 10.1323C163.33 10.297 162.938 10.487 162.596 10.7023L161.76 8.99233C161.937 8.87833 162.152 8.75799 162.406 8.63133C162.659 8.50466 162.938 8.38433 163.242 8.27033C163.558 8.15633 163.894 8.06766 164.249 8.00433C164.603 7.92833 164.977 7.89033 165.37 7.89033C166.104 7.89033 166.738 7.97899 167.27 8.15633C167.802 8.33366 168.239 8.58699 168.581 8.91633C168.935 9.23299 169.195 9.61299 169.36 10.0563C169.537 10.487 169.626 10.962 169.626 11.4813C169.626 12.0893 169.455 12.634 169.113 13.1153C168.783 13.5967 168.353 13.964 167.821 14.2173C168.505 14.458 169.068 14.857 169.512 15.4143C169.968 15.9717 170.196 16.6873 170.196 17.5613C170.196 18.144 170.094 18.6887 169.892 19.1953C169.689 19.6893 169.379 20.12 168.961 20.4873C168.543 20.842 168.011 21.127 167.365 21.3423C166.731 21.545 165.971 21.6463 165.085 21.6463Z" fill="#787878"/>
</svg>
