<svg width="34" height="34" viewBox="0 0 34 34" fill="none" xmlns="http://www.w3.org/2000/svg">
<path fill-rule="evenodd" clip-rule="evenodd" d="M16.3232 0.477632C16.7541 0.286102 17.246 0.286102 17.677 0.477632L32.677 7.1443C33.5181 7.51814 33.8969 8.50307 33.5231 9.34422C33.1493 10.1854 32.1643 10.5642 31.3232 10.1903L17.0001 3.82451L2.67699 10.1903C1.83585 10.5642 0.850911 10.1854 0.477071 9.34422C0.103231 8.50307 0.482053 7.51814 1.32319 7.1443L16.3232 0.477632ZM0.333424 13.6673C0.333424 12.7468 1.07962 12.0007 2.00009 12.0007H32.0001C32.9206 12.0007 33.6668 12.7468 33.6668 13.6673C33.6668 14.5878 32.9206 15.334 32.0001 15.334V30.334C32.9206 30.334 33.6668 31.0802 33.6668 32.0007C33.6668 32.9211 32.9206 33.6673 32.0001 33.6673H2.00009C1.07962 33.6673 0.333424 32.9211 0.333424 32.0007C0.333424 31.0802 1.07962 30.334 2.00009 30.334V15.334C1.07962 15.334 0.333424 14.5878 0.333424 13.6673ZM5.33342 15.334V30.334H28.6668V15.334H5.33342ZM10.3334 18.6673C11.2539 18.6673 12.0001 19.4135 12.0001 20.334V25.334C12.0001 26.2545 11.2539 27.0007 10.3334 27.0007C9.41295 27.0007 8.66676 26.2545 8.66676 25.334V20.334C8.66676 19.4135 9.41295 18.6673 10.3334 18.6673ZM17.0001 18.6673C17.9206 18.6673 18.6668 19.4135 18.6668 20.334V25.334C18.6668 26.2545 17.9206 27.0007 17.0001 27.0007C16.0796 27.0007 15.3334 26.2545 15.3334 25.334V20.334C15.3334 19.4135 16.0796 18.6673 17.0001 18.6673ZM23.6668 18.6673C24.5872 18.6673 25.3334 19.4135 25.3334 20.334V25.334C25.3334 26.2545 24.5872 27.0007 23.6668 27.0007C22.7463 27.0007 22.0001 26.2545 22.0001 25.334V20.334C22.0001 19.4135 22.7463 18.6673 23.6668 18.6673Z" fill="#ED1C24"/>
</svg>
