<svg width="14" height="15" viewBox="0 0 14 15" fill="none" xmlns="http://www.w3.org/2000/svg">
<path fill-rule="evenodd" clip-rule="evenodd" d="M0.292893 0.432542C0.683418 0.0420174 1.31658 0.0420174 1.70711 0.432542L7 5.72544L12.2929 0.432542C12.6834 0.042018 13.3166 0.042018 13.7071 0.432542C14.0976 0.823066 14.0976 1.45623 13.7071 1.84676L8.41421 7.13965L13.7071 12.4325C14.0976 12.8231 14.0976 13.4562 13.7071 13.8468C13.3166 14.2373 12.6834 14.2373 12.2929 13.8468L7 8.55386L1.70711 13.8468C1.31658 14.2373 0.683418 14.2373 0.292893 13.8468C-0.0976311 13.4562 -0.0976311 12.8231 0.292893 12.4325L5.58579 7.13965L0.292893 1.84676C-0.0976311 1.45623 -0.0976311 0.823066 0.292893 0.432542Z" fill="#1C1C1C"/>
</svg>
