<svg width="34" height="28" viewBox="0 0 34 28" fill="none" xmlns="http://www.w3.org/2000/svg">
<path fill-rule="evenodd" clip-rule="evenodd" d="M0.333008 7.33268C0.333008 3.65078 3.31778 0.666016 6.99967 0.666016H26.9997C30.6816 0.666016 33.6663 3.65078 33.6663 7.33268V20.666C33.6663 24.3479 30.6816 27.3327 26.9997 27.3327H6.99967C3.31778 27.3327 0.333008 24.3479 0.333008 20.666V7.33268ZM3.66634 12.3327V20.666C3.66634 22.507 5.15873 23.9993 6.99967 23.9993H26.9997C28.8406 23.9993 30.333 22.507 30.333 20.666V12.3327H3.66634ZM30.333 8.99935H3.66634V7.33268C3.66634 5.49173 5.15873 3.99935 6.99967 3.99935H26.9997C28.8406 3.99935 30.333 5.49173 30.333 7.33268V8.99935ZM6.99967 18.9993C6.99967 18.0789 7.74587 17.3327 8.66634 17.3327H10.333C11.2535 17.3327 11.9997 18.0789 11.9997 18.9993C11.9997 19.9198 11.2535 20.666 10.333 20.666H8.66634C7.74587 20.666 6.99967 19.9198 6.99967 18.9993ZM15.333 18.9993C15.333 18.0789 16.0792 17.3327 16.9997 17.3327H18.6663C19.5868 17.3327 20.333 18.0789 20.333 18.9993C20.333 19.9198 19.5868 20.666 18.6663 20.666H16.9997C16.0792 20.666 15.333 19.9198 15.333 18.9993Z" fill="#ED1C24"/>
</svg>
