<svg width="41" height="40" viewBox="0 0 41 40" fill="none" xmlns="http://www.w3.org/2000/svg">
<rect opacity="0.2" x="0.5" width="40" height="40" rx="20" fill="#787878"/>
<path fill-rule="evenodd" clip-rule="evenodd" d="M8.83331 11.8333C8.83331 9.90032 10.4003 8.33331 12.3333 8.33331H16.1591C17.1634 8.33331 18.0551 8.97598 18.3727 9.92878L20.1201 15.1711C20.4873 16.2727 19.9886 17.4767 18.95 17.996L17.3674 18.7873C18.4018 20.594 19.9059 22.0982 21.7127 23.1326L22.504 21.5499C23.0233 20.5113 24.2272 20.0126 25.3288 20.3798L30.5712 22.1273C31.524 22.4449 32.1666 23.3365 32.1666 24.3409V28.1666C32.1666 30.0996 30.5996 31.6666 28.6666 31.6666H27.5C17.1907 31.6666 8.83331 23.3093 8.83331 13V11.8333ZM12.3333 10.6666C11.689 10.6666 11.1666 11.189 11.1666 11.8333V13C11.1666 22.0206 18.4793 29.3333 27.5 29.3333H28.6666C29.311 29.3333 29.8333 28.811 29.8333 28.1666V24.3409L24.591 22.5934L23.2742 25.2269C22.9942 25.7869 22.322 26.0261 21.7512 25.7687C18.6397 24.3658 16.1342 21.8603 14.7313 18.7488C14.4739 18.1779 14.713 17.5058 15.2731 17.2257L17.9065 15.909L16.1591 10.6666H12.3333Z" fill="#1C1C1C"/>
</svg>
