<svg width="41" height="40" viewBox="0 0 41 40" fill="none" xmlns="http://www.w3.org/2000/svg">
<rect x="0.5" width="40" height="40" rx="20" fill="#00CB08"/>
<path fill-rule="evenodd" clip-rule="evenodd" d="M8.60004 20C8.60004 13.4278 13.9278 8.09998 20.5 8.09998C27.0722 8.09998 32.4 13.4278 32.4 20C32.4 26.5722 27.0722 31.9 20.5 31.9C18.145 31.9 15.9475 31.215 14.0989 30.0333L9.22939 31.2507L10.5062 26.4626C9.30035 24.6013 8.60004 22.3812 8.60004 20ZM20.5 9.93074C14.939 9.93074 10.4308 14.4389 10.4308 20C10.4308 22.1483 11.1026 24.1371 12.2476 25.7711L12.4923 26.1202L11.7987 28.7213L14.4481 28.0589L14.7886 28.2939C16.4112 29.4136 18.3777 30.0692 20.5 30.0692C26.0611 30.0692 30.5693 25.5611 30.5693 20C30.5693 14.4389 26.0611 9.93074 20.5 9.93074Z" fill="white"/>
<path d="M17.2963 14.05C16.9916 13.438 16.5241 13.4921 16.0519 13.4921C15.208 13.4921 13.8922 14.503 13.8922 16.3842C13.8922 17.9261 14.5715 19.6138 16.8609 22.1385C19.0703 24.575 21.9733 25.8355 24.3833 25.7926C26.7934 25.7497 27.2892 23.6757 27.2892 22.9754C27.2892 22.6649 27.0966 22.51 26.9639 22.468C26.1426 22.0738 24.6279 21.3394 24.2832 21.2014C23.9386 21.0634 23.7586 21.2501 23.6467 21.3516C23.3342 21.6494 22.7146 22.5272 22.5025 22.7247C22.2904 22.9221 21.9741 22.8222 21.8425 22.7475C21.3582 22.5532 20.0451 21.9691 18.9984 20.9545C17.7039 19.6996 17.6279 19.2679 17.384 18.8836C17.1889 18.5761 17.3321 18.3875 17.4035 18.3051C17.6824 17.9833 18.0675 17.4864 18.2402 17.2395C18.413 16.9926 18.2758 16.6177 18.1936 16.3843C17.8398 15.3801 17.54 14.5396 17.2963 14.05Z" fill="white"/>
</svg>
