<svg width="21" height="21" viewBox="0 0 21 21" fill="none" xmlns="http://www.w3.org/2000/svg">
<path fill-rule="evenodd" clip-rule="evenodd" d="M18.0009 2.8932C17.4151 2.30741 16.4654 2.30741 15.8796 2.8932L15.0867 3.68609L17.208 5.80741L18.0009 5.01452C18.5867 4.42873 18.5867 3.47898 18.0009 2.8932ZM15.7938 7.22162L13.6725 5.1003L2.44031 16.3325V18.4893H4.52609L15.7938 7.22162ZM14.4654 1.47898C15.8322 0.112149 18.0483 0.112149 19.4151 1.47898C20.782 2.84582 20.782 5.0619 19.4151 6.42873L5.64741 20.1964C5.45988 20.384 5.20552 20.4893 4.94031 20.4893H1.44031C0.888023 20.4893 0.440308 20.0416 0.440308 19.4893V15.9183C0.440308 15.6531 0.545664 15.3987 0.733201 15.2112L14.4654 1.47898Z" fill="#1C1C1C"/>
</svg>
