<svg width="12" height="11" viewBox="0 0 12 11" fill="none" xmlns="http://www.w3.org/2000/svg">
<path d="M4.93709 0.677234C5.1616 -0.0137493 6.13916 -0.013749 6.36367 0.677234L7.16585 3.14608C7.26625 3.4551 7.55422 3.66432 7.87914 3.66432H10.475C11.2016 3.66432 11.5037 4.59403 10.9159 5.02108L8.81575 6.54691C8.55289 6.7379 8.44289 7.07642 8.5433 7.38544L9.34548 9.85429C9.56999 10.5453 8.77913 11.1199 8.19134 10.6928L6.09122 9.16698C5.82835 8.976 5.4724 8.976 5.20954 9.16698L3.10941 10.6928C2.52163 11.1199 1.73077 10.5453 1.95528 9.85429L2.75746 7.38544C2.85786 7.07642 2.74787 6.7379 2.48501 6.54691L0.384878 5.02108C-0.202907 4.59403 0.099175 3.66432 0.825717 3.66432H3.42162C3.74654 3.66432 4.0345 3.4551 4.13491 3.14608L4.93709 0.677234Z" fill="#ED1C24"/>
</svg>
