<svg width="18" height="21" viewBox="0 0 18 21" fill="none" xmlns="http://www.w3.org/2000/svg">
<path fill-rule="evenodd" clip-rule="evenodd" d="M5 2.45386C5 1.34929 5.89543 0.453857 7 0.453857H11C12.1046 0.453857 13 1.34929 13 2.45386V4.45386H15.9897C15.9959 4.4538 16.0021 4.4538 16.0083 4.45386H17C17.5523 4.45386 18 4.90157 18 5.45386C18 6.00614 17.5523 6.45386 17 6.45386H16.9311L16.1301 17.6676C16.018 19.2375 14.7117 20.4539 13.1378 20.4539H4.86224C3.28832 20.4539 1.982 19.2375 1.86986 17.6676L1.06888 6.45386H1C0.447715 6.45386 0 6.00614 0 5.45386C0 4.90157 0.447715 4.45386 1 4.45386H1.99174C1.99795 4.4538 2.00414 4.4538 2.01032 4.45386H5V2.45386ZM3.07398 6.45386L3.86478 17.5251C3.90216 18.0484 4.3376 18.4539 4.86224 18.4539H13.1378C13.6624 18.4539 14.0978 18.0484 14.1352 17.5251L14.926 6.45386H3.07398ZM11 4.45386H7V2.45386H11V4.45386ZM7 8.45386C7.55228 8.45386 8 8.90157 8 9.45386V15.4539C8 16.0061 7.55228 16.4539 7 16.4539C6.44772 16.4539 6 16.0061 6 15.4539V9.45386C6 8.90157 6.44772 8.45386 7 8.45386ZM11 8.45386C11.5523 8.45386 12 8.90157 12 9.45386V15.4539C12 16.0061 11.5523 16.4539 11 16.4539C10.4477 16.4539 10 16.0061 10 15.4539V9.45386C10 8.90157 10.4477 8.45386 11 8.45386Z" fill="#1C1C1C"/>
</svg>
